%TF.GenerationSoftware,KiCad,Pcbnew,10.0.5*%
%TF.CreationDate,2026-09-28T02:48:56-03:00*%
%TF.ProjectId,IC2S-EBM7-2608-V2.3-Fixo420,49433253-2d45-4424-9d37-2d323630382d,rev?*%
%TF.SameCoordinates,Original*%
%TF.FileFunction,Soldermask,Bot*%
%TF.FilePolarity,Negative*%
%FSLAX46Y46*%
G04 Gerber Fmt 4.6, Leading zero omitted, Abs format (unit mm)*
G04 Created by KiCad (PCBNEW 10.0.5) date 2026-09-28 02:48:56*
%MOMM*%
%LPD*%
G01*
G04 APERTURE LIST*
%ADD10C,2.500000*%
%ADD11C,1.100000*%
%ADD12R,2.200000X1.600000*%
%ADD13O,2.200000X1.600000*%
%ADD14R,1.000000X1.000000*%
%ADD15C,1.000000*%
%ADD16R,1.500000X1.500000*%
%ADD17C,1.500000*%
G04 APERTURE END LIST*
D10*
%TO.C,Fid1*%
X121422100Y-133098600D03*
%TD*%
%TO.C,Fid3*%
X176100000Y-132700000D03*
%TD*%
D11*
%TO.C,T8*%
X141200000Y-132900000D03*
%TD*%
%TO.C,T4*%
X157900000Y-128300000D03*
%TD*%
D12*
%TO.C,U1*%
X145060000Y-128277800D03*
D13*
X147600000Y-128277800D03*
X150140000Y-128277800D03*
%TD*%
D11*
%TO.C,T6*%
X128950000Y-76800000D03*
%TD*%
D14*
%TO.C,H1*%
X150010000Y-78430000D03*
D15*
X150010000Y-79700000D03*
X151280000Y-78430000D03*
X151280000Y-79700000D03*
X152550000Y-78430000D03*
X152550000Y-79700000D03*
%TD*%
D11*
%TO.C,T5*%
X124800000Y-103600000D03*
%TD*%
D10*
%TO.C,Fid2*%
X121400000Y-77100000D03*
%TD*%
D11*
%TO.C,T3*%
X123900000Y-86800000D03*
%TD*%
%TO.C,T2*%
X125800000Y-131600000D03*
%TD*%
D16*
%TO.C,P2*%
X176512100Y-80878800D03*
D17*
X176512100Y-83418800D03*
X176512100Y-85958800D03*
X176512100Y-88498800D03*
X176512100Y-91038800D03*
X176512100Y-93578800D03*
X176512100Y-96118800D03*
X176512100Y-98658800D03*
X176512100Y-101198800D03*
X176512100Y-103738800D03*
X176512100Y-106278800D03*
X176512100Y-108818800D03*
X176512100Y-111358800D03*
X176512100Y-113898800D03*
%TD*%
D11*
%TO.C,T7*%
X176200000Y-128200000D03*
%TD*%
D16*
%TO.C,P1*%
X120505100Y-80878800D03*
D17*
X120505100Y-83418800D03*
X120505100Y-85958800D03*
X120505100Y-88498800D03*
X120505100Y-91038800D03*
X120505100Y-93578800D03*
X120505100Y-96118800D03*
X120505100Y-98658800D03*
X120505100Y-101198800D03*
X120505100Y-103738800D03*
X120505100Y-106278800D03*
X120505100Y-108818800D03*
X120505100Y-111358800D03*
X120505100Y-113898800D03*
X120505100Y-116438800D03*
X120505100Y-118978800D03*
X120505100Y-121518800D03*
X120505100Y-124058800D03*
X120505100Y-126598800D03*
X120505100Y-129138800D03*
%TD*%
D11*
%TO.C,T1*%
X124800000Y-127400000D03*
%TD*%
M02*
