M48
; DRILL file KiCad 10.0.5 date 2026-09-28T18:23:03
; FORMAT={-:-/ absolute / metric / decimal}
; #@! TF.CreationDate,2026-09-28T18:23:03-03:00
; #@! TF.GenerationSoftware,Kicad,Pcbnew,10.0.5
; #@! TF.FileFunction,MixedPlating,1,4
FMAT,2
METRIC
; #@! TA.AperFunction,Plated,PTH,ComponentDrill
T1C0.200
; #@! TA.AperFunction,Plated,PTH,ViaDrill
T2C0.300
; #@! TA.AperFunction,Plated,PTH,ComponentDrill
T3C0.300
; #@! TA.AperFunction,Plated,PTH,ViaDrill
T4C0.400
; #@! TA.AperFunction,Plated,PTH,ComponentDrill
T5C0.500
; #@! TA.AperFunction,Plated,PTH,ComponentDrill
T6C0.900
; #@! TA.AperFunction,Plated,PTH,ComponentDrill
T7C1.000
%
G90
G05
T1
X140.3Y-87.6
X141.1Y-87.6
X141.9Y-87.6
X143.629Y-94.4
X144.429Y-94.4
X144.679Y-88.792
X144.679Y-89.792
X144.679Y-90.792
X145.229Y-94.4
X145.679Y-88.792
X145.679Y-89.792
X145.679Y-90.792
X146.679Y-88.792
X146.679Y-89.792
X146.679Y-90.792
T2
X123.45Y-102.7
X123.5Y-106.0
X125.8Y-100.517
X126.644Y-98.612
X127.2Y-95.9
X127.585Y-108.725
X127.994Y-103.4
X128.275Y-125.05
X128.95Y-84.05
X128.95Y-111.575
X130.5Y-84.1
X130.5Y-125.075
X132.35Y-85.45
X132.9Y-125.05
X133.494Y-103.4
X133.525Y-115.85
X133.6Y-114.6
X133.759Y-110.654
X134.0Y-119.45
X134.4Y-110.45
X134.4Y-117.25
X134.8Y-97.977
X134.8Y-101.787
X135.2Y-104.2
X135.8Y-96.0
X136.0Y-98.6
X136.0Y-101.152
X137.55Y-107.6
X137.7Y-118.05
X138.0Y-119.05
X138.8Y-129.85
X139.1Y-91.4
X139.1Y-96.25
X139.1Y-105.0
X139.1Y-107.4
X139.5Y-80.7
X139.6Y-86.3
X139.85Y-115.05
X139.9Y-103.4
X140.85Y-129.85
X141.2Y-80.7
X141.2Y-109.6
X141.2Y-112.85
X141.5Y-95.1
X141.9Y-103.7
X142.3Y-82.0
X142.3Y-84.1
X142.3Y-102.85
X142.36Y-86.3
X144.15Y-83.8
X144.3Y-78.35
X145.5Y-98.9
X145.95Y-86.25
X147.4Y-79.25
X147.6Y-129.578
X148.0Y-82.95
X149.4Y-108.6
X149.65Y-81.1
X150.05Y-86.2
X150.8Y-133.4
X150.9Y-108.6
X150.95Y-91.25
X151.2Y-100.2
X151.5Y-109.8
X152.3Y-81.95
X152.55Y-93.2
X152.55Y-97.65
X153.05Y-130.55
X153.5Y-88.5
X153.6Y-92.75
X153.7Y-99.3
X153.8Y-108.9
X154.4Y-117.8
X154.5Y-76.85
X154.75Y-79.45
X154.85Y-86.95
X154.85Y-95.55
X154.85Y-104.5
X154.85Y-112.8
X155.6Y-128.05
X156.75Y-104.45
X157.0Y-92.45
X157.1Y-101.3
X157.1Y-118.9
X157.2Y-110.4
X158.1Y-87.6
X158.2Y-96.4
X158.3Y-113.8
X158.55Y-129.8
X158.93Y-83.66
X159.05Y-87.3
X159.05Y-121.15
X159.2Y-107.5
X159.5Y-115.8
X159.55Y-80.8
X159.7Y-95.25
X159.7Y-98.8
X159.7Y-103.8
X159.7Y-112.725
X160.35Y-126.85
X160.4Y-77.1
X160.45Y-80.8
X160.5Y-101.475
X160.517Y-118.421
X160.55Y-110.35
X160.9Y-87.3
X161.287Y-121.512
X161.3Y-98.1
X161.3Y-106.2
X161.3Y-113.2
X161.7Y-80.55
X163.0Y-84.1
X164.338Y-94.55
X164.338Y-120.4
X164.4Y-102.9
X164.4Y-111.9
X164.85Y-82.85
X165.15Y-84.7
X165.203Y-90.782
X166.454Y-95.35
X166.454Y-104.1
X166.454Y-112.8
X166.7Y-79.9
X173.6Y-94.5
X173.6Y-102.3
X173.6Y-109.5
X173.6Y-118.0
X173.6Y-120.8
X177.1Y-77.8
T3
X144.655Y-105.315
X144.655Y-106.285
X145.945Y-105.315
X145.945Y-106.285
T4
X122.825Y-99.75
X134.35Y-127.175
X152.7Y-84.9
T5
X150.01Y-78.43
X150.01Y-79.7
X151.28Y-78.43
X151.28Y-79.7
X152.55Y-78.43
X152.55Y-79.7
T6
X120.505Y-80.879
X120.505Y-83.419
X120.505Y-85.959
X120.505Y-88.499
X120.505Y-91.039
X120.505Y-93.579
X120.505Y-96.119
X120.505Y-98.659
X120.505Y-101.199
X120.505Y-103.739
X120.505Y-106.279
X120.505Y-108.819
X120.505Y-111.359
X120.505Y-113.899
X120.505Y-116.439
X120.505Y-118.979
X120.505Y-121.519
X120.505Y-124.059
X120.505Y-126.599
X120.505Y-129.139
X124.8Y-127.05
X125.0Y-89.85
X125.0Y-94.35
X125.8Y-131.6
X128.95Y-76.8
X137.55Y-125.15
X170.65Y-128.05
X176.2Y-128.2
X176.512Y-80.879
X176.512Y-83.419
X176.512Y-85.959
X176.512Y-88.499
X176.512Y-91.039
X176.512Y-93.579
X176.512Y-96.119
X176.512Y-98.659
X176.512Y-101.199
X176.512Y-103.739
X176.512Y-106.279
X176.512Y-108.819
X176.512Y-111.359
X176.512Y-113.899
T7
X145.06Y-128.278
X147.6Y-128.278
X150.14Y-128.278
M30
