%TF.GenerationSoftware,KiCad,Pcbnew,10.0.5*%
%TF.CreationDate,2026-09-28T18:31:50-03:00*%
%TF.ProjectId,IC2S-EBM7-2608-V2.3-Fixo420,49433253-2d45-4424-9d37-2d323630382d,rev?*%
%TF.SameCoordinates,Original*%
%TF.FileFunction,Copper,L1,Top*%
%TF.FilePolarity,Positive*%
%FSLAX46Y46*%
G04 Gerber Fmt 4.6, Leading zero omitted, Abs format (unit mm)*
G04 Created by KiCad (PCBNEW 10.0.5) date 2026-09-28 18:31:50*
%MOMM*%
%LPD*%
G01*
G04 APERTURE LIST*
G04 Aperture macros list*
%AMRoundRect*
0 Rectangle with rounded corners*
0 $1 Rounding radius*
0 $2 $3 $4 $5 $6 $7 $8 $9 X,Y pos of 4 corners*
0 Add a 4 corners polygon primitive as box body*
4,1,4,$2,$3,$4,$5,$6,$7,$8,$9,$2,$3,0*
0 Add four circle primitives for the rounded corners*
1,1,$1+$1,$2,$3*
1,1,$1+$1,$4,$5*
1,1,$1+$1,$6,$7*
1,1,$1+$1,$8,$9*
0 Add four rect primitives between the rounded corners*
20,1,$1+$1,$2,$3,$4,$5,0*
20,1,$1+$1,$4,$5,$6,$7,0*
20,1,$1+$1,$6,$7,$8,$9,0*
20,1,$1+$1,$8,$9,$2,$3,0*%
G04 Aperture macros list end*
%TA.AperFunction,SMDPad,CuDef*%
%ADD10C,1.000000*%
%TD*%
%TA.AperFunction,SMDPad,CuDef*%
%ADD11R,0.900000X0.800000*%
%TD*%
%TA.AperFunction,SMDPad,CuDef*%
%ADD12R,0.800000X0.900000*%
%TD*%
%TA.AperFunction,SMDPad,CuDef*%
%ADD13R,0.700000X0.900000*%
%TD*%
%TA.AperFunction,SMDPad,CuDef*%
%ADD14RoundRect,0.112500X-0.112500X0.587500X-0.112500X-0.587500X0.112500X-0.587500X0.112500X0.587500X0*%
%TD*%
%TA.AperFunction,HeatsinkPad*%
%ADD15C,0.600000*%
%TD*%
%TA.AperFunction,HeatsinkPad*%
%ADD16R,1.890000X1.570000*%
%TD*%
%TA.AperFunction,SMDPad,CuDef*%
%ADD17RoundRect,0.250000X-0.325000X-1.100000X0.325000X-1.100000X0.325000X1.100000X-0.325000X1.100000X0*%
%TD*%
%TA.AperFunction,SMDPad,CuDef*%
%ADD18O,1.600000X0.600000*%
%TD*%
%TA.AperFunction,SMDPad,CuDef*%
%ADD19R,1.800000X1.770000*%
%TD*%
%TA.AperFunction,SMDPad,CuDef*%
%ADD20RoundRect,0.250000X1.100000X-0.325000X1.100000X0.325000X-1.100000X0.325000X-1.100000X-0.325000X0*%
%TD*%
%TA.AperFunction,SMDPad,CuDef*%
%ADD21RoundRect,0.250000X1.000000X0.900000X-1.000000X0.900000X-1.000000X-0.900000X1.000000X-0.900000X0*%
%TD*%
%TA.AperFunction,SMDPad,CuDef*%
%ADD22RoundRect,0.250000X-0.650000X0.325000X-0.650000X-0.325000X0.650000X-0.325000X0.650000X0.325000X0*%
%TD*%
%TA.AperFunction,SMDPad,CuDef*%
%ADD23RoundRect,0.250000X0.250000X0.475000X-0.250000X0.475000X-0.250000X-0.475000X0.250000X-0.475000X0*%
%TD*%
%TA.AperFunction,SMDPad,CuDef*%
%ADD24R,0.900000X0.700000*%
%TD*%
%TA.AperFunction,SMDPad,CuDef*%
%ADD25O,1.800000X0.450000*%
%TD*%
%TA.AperFunction,ComponentPad*%
%ADD26C,1.100000*%
%TD*%
%TA.AperFunction,SMDPad,CuDef*%
%ADD27R,1.700000X1.100000*%
%TD*%
%TA.AperFunction,SMDPad,CuDef*%
%ADD28R,0.600000X0.750000*%
%TD*%
%TA.AperFunction,SMDPad,CuDef*%
%ADD29R,0.600000X0.600000*%
%TD*%
%TA.AperFunction,ComponentPad*%
%ADD30R,0.500000X0.400000*%
%TD*%
%TA.AperFunction,SMDPad,CuDef*%
%ADD31R,0.400000X0.400000*%
%TD*%
%TA.AperFunction,ComponentPad*%
%ADD32R,0.600000X0.400000*%
%TD*%
%TA.AperFunction,SMDPad,CuDef*%
%ADD33R,0.700000X0.800000*%
%TD*%
%TA.AperFunction,SMDPad,CuDef*%
%ADD34R,0.700000X0.650000*%
%TD*%
%TA.AperFunction,SMDPad,CuDef*%
%ADD35R,0.300000X0.900000*%
%TD*%
%TA.AperFunction,SMDPad,CuDef*%
%ADD36R,0.900000X0.300000*%
%TD*%
%TA.AperFunction,ComponentPad*%
%ADD37C,0.500000*%
%TD*%
%TA.AperFunction,SMDPad,CuDef*%
%ADD38R,3.100000X3.100000*%
%TD*%
%TA.AperFunction,SMDPad,CuDef*%
%ADD39R,0.600000X1.100000*%
%TD*%
%TA.AperFunction,SMDPad,CuDef*%
%ADD40R,0.800000X0.700000*%
%TD*%
%TA.AperFunction,SMDPad,CuDef*%
%ADD41R,1.400000X1.200000*%
%TD*%
%TA.AperFunction,SMDPad,CuDef*%
%ADD42R,1.100000X0.600000*%
%TD*%
%TA.AperFunction,ComponentPad*%
%ADD43R,2.200000X1.600000*%
%TD*%
%TA.AperFunction,ComponentPad*%
%ADD44O,2.200000X1.600000*%
%TD*%
%TA.AperFunction,SMDPad,CuDef*%
%ADD45RoundRect,0.125000X0.537500X0.125000X-0.537500X0.125000X-0.537500X-0.125000X0.537500X-0.125000X0*%
%TD*%
%TA.AperFunction,SMDPad,CuDef*%
%ADD46RoundRect,0.250000X0.300000X-0.300000X0.300000X0.300000X-0.300000X0.300000X-0.300000X-0.300000X0*%
%TD*%
%TA.AperFunction,SMDPad,CuDef*%
%ADD47R,0.750000X0.600000*%
%TD*%
%TA.AperFunction,ComponentPad*%
%ADD48R,1.000000X1.000000*%
%TD*%
%TA.AperFunction,ComponentPad*%
%ADD49C,1.000000*%
%TD*%
%TA.AperFunction,SMDPad,CuDef*%
%ADD50R,1.700000X1.000000*%
%TD*%
%TA.AperFunction,SMDPad,CuDef*%
%ADD51RoundRect,0.250000X-0.475000X0.250000X-0.475000X-0.250000X0.475000X-0.250000X0.475000X0.250000X0*%
%TD*%
%TA.AperFunction,ComponentPad*%
%ADD52R,1.500000X1.500000*%
%TD*%
%TA.AperFunction,ComponentPad*%
%ADD53C,1.500000*%
%TD*%
%TA.AperFunction,ViaPad*%
%ADD54C,0.600000*%
%TD*%
%TA.AperFunction,ViaPad*%
%ADD55C,0.800000*%
%TD*%
%TA.AperFunction,Conductor*%
%ADD56C,0.250000*%
%TD*%
%TA.AperFunction,Conductor*%
%ADD57C,0.300000*%
%TD*%
%TA.AperFunction,Conductor*%
%ADD58C,0.400000*%
%TD*%
%TA.AperFunction,Conductor*%
%ADD59C,0.500000*%
%TD*%
%TA.AperFunction,Conductor*%
%ADD60C,0.200000*%
%TD*%
G04 APERTURE END LIST*
D10*
%TO.P,Fid1,*%
%TO.N,*%
X121422100Y-133098600D03*
%TD*%
D11*
%TO.P,C42,1*%
%TO.N,GND_ADC*%
X160350000Y-78000000D03*
%TO.P,C42,2*%
%TO.N,/7 Celula de carga/IEXC2*%
X160350000Y-79400000D03*
%TD*%
D12*
%TO.P,C39,1*%
%TO.N,REFIN1+*%
X164400000Y-79900000D03*
%TO.P,C39,2*%
%TO.N,GND_ADC*%
X165800000Y-79900000D03*
%TD*%
D13*
%TO.P,R5,1*%
%TO.N,Net-(U3-EN)*%
X131300000Y-116450000D03*
%TO.P,R5,2*%
%TO.N,+5V_ADC*%
X129900000Y-116450000D03*
%TD*%
D14*
%TO.P,U12,1,OUT_1*%
%TO.N,+12V_TPS*%
X146275000Y-103600000D03*
%TO.P,U12,2,FB_2*%
%TO.N,Net-(U12-FB)*%
X145625000Y-103600000D03*
%TO.P,U12,3,NC_3*%
%TO.N,unconnected-(U12-NC-Pad3)*%
X144975000Y-103600000D03*
%TO.P,U12,4,GND_4*%
%TO.N,GND_ADC*%
X144325000Y-103600000D03*
%TO.P,U12,5,EN_5*%
%TO.N,+24V_ADC*%
X144325000Y-108000000D03*
%TO.P,U12,6,NC_6*%
%TO.N,unconnected-(U12-NC-Pad6)*%
X144975000Y-108000000D03*
%TO.P,U12,7,NC_7*%
%TO.N,unconnected-(U12-NC-Pad7)*%
X145625000Y-108000000D03*
%TO.P,U12,8,IN_8*%
%TO.N,+24V_ADC*%
X146275000Y-108000000D03*
D15*
%TO.P,U12,9,PAD_9*%
%TO.N,GND_ADC*%
X145945000Y-105315000D03*
X144655000Y-105315000D03*
D16*
X145300000Y-105800000D03*
D15*
X145945000Y-106285000D03*
X144655000Y-106285000D03*
%TD*%
D11*
%TO.P,C36,1*%
%TO.N,+24V_ADC*%
X158550000Y-131975000D03*
%TO.P,C36,2*%
%TO.N,GND_ADC*%
X158550000Y-130575000D03*
%TD*%
D17*
%TO.P,C1,1*%
%TO.N,+24V_ADC*%
X144725000Y-131200000D03*
%TO.P,C1,2*%
%TO.N,GND_ADC*%
X147675000Y-131200000D03*
%TD*%
D11*
%TO.P,C9,1*%
%TO.N,+3.3V*%
X126175000Y-97325000D03*
%TO.P,C9,2*%
%TO.N,DGND*%
X126175000Y-95925000D03*
%TD*%
D13*
%TO.P,R18,1*%
%TO.N,/5 ADC/AIN1_ADC*%
X155800000Y-94175000D03*
%TO.P,R18,2*%
%TO.N,Net-(FB4-Pad2)*%
X157200000Y-94175000D03*
%TD*%
D18*
%TO.P,U7,1,NIC_1_1*%
%TO.N,unconnected-(U7-NIC_1-Pad1)*%
X132350000Y-80410000D03*
%TO.P,U7,2,VIN_2*%
%TO.N,+3.3V_ANA*%
X132350000Y-81680000D03*
%TO.P,U7,3,NIC_3_3*%
%TO.N,unconnected-(U7-NIC_3-Pad3)*%
X132350000Y-82950000D03*
%TO.P,U7,4,GND_4*%
%TO.N,GND_ADC*%
X132350000Y-84220000D03*
%TO.P,U7,5,NIC_5_5*%
%TO.N,unconnected-(U7-NIC_5-Pad5)*%
X137550000Y-84220000D03*
%TO.P,U7,6,VOUT_6*%
%TO.N,+2.5_VREF*%
X137550000Y-82950000D03*
%TO.P,U7,7,NIC_7_7*%
%TO.N,unconnected-(U7-NIC_7-Pad7)*%
X137550000Y-81680000D03*
%TO.P,U7,8,DNC_8*%
%TO.N,unconnected-(U7-DNC-Pad8)*%
X137550000Y-80410000D03*
%TD*%
D11*
%TO.P,C25,1*%
%TO.N,+2.5_VREF*%
X141200000Y-82950000D03*
%TO.P,C25,2*%
%TO.N,GND_ADC*%
X141200000Y-81550000D03*
%TD*%
D19*
%TO.P,D19,1,K_1*%
%TO.N,IEXC_OUT*%
X170642000Y-77600000D03*
%TO.P,D19,2,A_2*%
%TO.N,GND_ADC*%
X166558000Y-77600000D03*
%TD*%
D12*
%TO.P,C20,1*%
%TO.N,GND_ADC*%
X142360000Y-85400000D03*
%TO.P,C20,2*%
%TO.N,Net-(U6-REGCAPA)*%
X143760000Y-85400000D03*
%TD*%
D20*
%TO.P,C34,1*%
%TO.N,+24V_ADC*%
X141900000Y-107825000D03*
%TO.P,C34,2*%
%TO.N,GND_ADC*%
X141900000Y-104875000D03*
%TD*%
D12*
%TO.P,C49,1*%
%TO.N,DGND*%
X123525000Y-105100000D03*
%TO.P,C49,2*%
%TO.N,+3.3V*%
X124925000Y-105100000D03*
%TD*%
D13*
%TO.P,R19,1*%
%TO.N,/5 ADC/AIN2_ADC*%
X155800000Y-102800000D03*
%TO.P,R19,2*%
%TO.N,Net-(FB5-Pad2)*%
X157200000Y-102800000D03*
%TD*%
D21*
%TO.P,D12,1,K_1*%
%TO.N,/1 Conectores/+24V_AIN3*%
X170880000Y-106800000D03*
%TO.P,D12,2,A_2*%
%TO.N,GND_ADC*%
X166580000Y-106800000D03*
%TD*%
D22*
%TO.P,C38,1*%
%TO.N,+12V_TPS*%
X148300000Y-101800000D03*
%TO.P,C38,2*%
%TO.N,GND_ADC*%
X148300000Y-104750000D03*
%TD*%
D23*
%TO.P,C3,1*%
%TO.N,GND_ADC*%
X152000000Y-130600000D03*
%TO.P,C3,2*%
%TO.N,+5V_REG*%
X150100000Y-130600000D03*
%TD*%
D24*
%TO.P,R36,1*%
%TO.N,VREFADC*%
X151250000Y-85950000D03*
%TO.P,R36,2*%
%TO.N,Net-(R36-Pad2)*%
X151250000Y-84550000D03*
%TD*%
D10*
%TO.P,Fid3,*%
%TO.N,*%
X176100000Y-132700000D03*
%TD*%
D25*
%TO.P,U5,1,VCC1_1*%
%TO.N,+3.3V*%
X127994300Y-97977500D03*
%TO.P,U5,2,GND1_2*%
%TO.N,DGND*%
X127994300Y-98612500D03*
%TO.P,U5,3,INA_3*%
%TO.N,/MOSI*%
X127994300Y-99246500D03*
%TO.P,U5,4,INB_4*%
%TO.N,/CLK*%
X127994300Y-99882000D03*
%TO.P,U5,5,INC_5*%
%TO.N,/CS_ADC*%
X127994300Y-100517500D03*
%TO.P,U5,6,OUTD_6*%
%TO.N,/MISO*%
X127994300Y-101152500D03*
%TO.P,U5,7,EN1_7*%
%TO.N,+3.3V*%
X127994300Y-101787500D03*
%TO.P,U5,8,GND1_8*%
%TO.N,DGND*%
X127994300Y-102421500D03*
%TO.P,U5,9,GND2_9*%
%TO.N,GND_ADC*%
X133494300Y-102421500D03*
%TO.P,U5,10,EN2_10*%
%TO.N,+3.3V_ISO*%
X133494300Y-101787500D03*
%TO.P,U5,11,IND_11*%
%TO.N,/4 Barreira digital/MISO_ADC_ISO*%
X133494300Y-101152500D03*
%TO.P,U5,12,OUTC_12*%
%TO.N,/4 Barreira digital/CS_ADC_ISO*%
X133494300Y-100517500D03*
%TO.P,U5,13,OUTB_13*%
%TO.N,/4 Barreira digital/CLK_ADC_ISO*%
X133494300Y-99882000D03*
%TO.P,U5,14,OUTA_14*%
%TO.N,/4 Barreira digital/MOSI_ADC_ISO*%
X133494300Y-99246500D03*
%TO.P,U5,15,GND2_15*%
%TO.N,GND_ADC*%
X133494300Y-98612500D03*
%TO.P,U5,16,VCC2_16*%
%TO.N,+3.3V_ISO*%
X133494300Y-97977500D03*
%TD*%
D13*
%TO.P,R11,1*%
%TO.N,Net-(FB5-Pad1)*%
X158943750Y-100000000D03*
%TO.P,R11,2*%
%TO.N,Net-(U9-OUT)*%
X160343750Y-100000000D03*
%TD*%
D24*
%TO.P,R38,1*%
%TO.N,Net-(R36-Pad2)*%
X151250000Y-83350000D03*
%TO.P,R38,2*%
%TO.N,/5 ADC/Temp2_AIN9_ADC*%
X151250000Y-81950000D03*
%TD*%
D19*
%TO.P,D6,1,K_1*%
%TO.N,/1 Conectores/AIN1*%
X170642000Y-93200000D03*
%TO.P,D6,2,A_2*%
%TO.N,GND_ADC*%
X166558000Y-93200000D03*
%TD*%
D11*
%TO.P,C10,1*%
%TO.N,GND_ADC*%
X138950000Y-115050000D03*
%TO.P,C10,2*%
%TO.N,Net-(U3-BP)*%
X138950000Y-116450000D03*
%TD*%
D20*
%TO.P,C35,1*%
%TO.N,+24V_ADC*%
X155600000Y-131975000D03*
%TO.P,C35,2*%
%TO.N,GND_ADC*%
X155600000Y-129025000D03*
%TD*%
D24*
%TO.P,R37,1*%
%TO.N,Net-(R36-Pad2)*%
X149550000Y-83350000D03*
%TO.P,R37,2*%
%TO.N,GND_ADC*%
X149550000Y-81950000D03*
%TD*%
D26*
%TO.P,T8,1,1_1*%
%TO.N,+24V_ADC*%
X170650000Y-128050000D03*
%TD*%
D27*
%TO.P,R30,1*%
%TO.N,IEXC_OUT*%
X162200000Y-76550000D03*
%TO.P,R30,2*%
%TO.N,/7 Celula de carga/IEXC2*%
X162200000Y-79250000D03*
%TD*%
D11*
%TO.P,C47,1*%
%TO.N,/7 Celula de carga/+2V5_EXC*%
X147400000Y-81750000D03*
%TO.P,C47,2*%
%TO.N,GND_ADC*%
X147400000Y-80350000D03*
%TD*%
D24*
%TO.P,R31,1*%
%TO.N,/1 Conectores/Load_Cell+*%
X164450000Y-85650000D03*
%TO.P,R31,2*%
%TO.N,/5 ADC/AIN5_ADC_Load_Cell+*%
X164450000Y-87050000D03*
%TD*%
D27*
%TO.P,F4,1*%
%TO.N,+24V_ADC*%
X173600000Y-93350000D03*
%TO.P,F4,2*%
%TO.N,/1 Conectores/+24V_AIN1*%
X173600000Y-90650000D03*
%TD*%
D28*
%TO.P,D16,1,A1_1*%
%TO.N,GND_ADC*%
X156750000Y-105400000D03*
%TO.P,D16,2,K2_2*%
%TO.N,+3.3V_ANA*%
X154850000Y-105400000D03*
%TO.P,D16,3,COM_3*%
%TO.N,/5 ADC/AIN3_ADC*%
X155800000Y-107600000D03*
%TD*%
%TO.P,D25,1,A1_1*%
%TO.N,GND_ADC*%
X158290000Y-84300000D03*
%TO.P,D25,2,K2_2*%
%TO.N,+3.3V_ANA*%
X156390000Y-84300000D03*
%TO.P,D25,3,COM_3*%
%TO.N,/5 ADC/AIN6_ADC_Load_Cell-*%
X157340000Y-86500000D03*
%TD*%
D24*
%TO.P,R28,1*%
%TO.N,IEXC_OUT*%
X164400000Y-76900000D03*
%TO.P,R28,2*%
%TO.N,REFIN1+*%
X164400000Y-78300000D03*
%TD*%
D28*
%TO.P,D17,1,A1_1*%
%TO.N,GND_ADC*%
X156750000Y-113800000D03*
%TO.P,D17,2,K2_2*%
%TO.N,+3.3V_ANA*%
X154850000Y-113800000D03*
%TO.P,D17,3,COM_3*%
%TO.N,/5 ADC/AIN4_ADC*%
X155800000Y-116000000D03*
%TD*%
%TO.P,U4,1,K_1*%
%TO.N,+3.3V_ANA*%
X134250000Y-107300000D03*
%TO.P,U4,2,REF_2*%
%TO.N,Net-(U4-REF)*%
X136150000Y-107300000D03*
%TO.P,U4,3,A_3*%
%TO.N,GND_ADC*%
X135200000Y-105100000D03*
%TD*%
D11*
%TO.P,C46,1*%
%TO.N,/5 ADC/AIN6_ADC_Load_Cell-*%
X162950000Y-88500000D03*
%TO.P,C46,2*%
%TO.N,/5 ADC/AIN5_ADC_Load_Cell+*%
X162950000Y-87100000D03*
%TD*%
D24*
%TO.P,R4,1*%
%TO.N,+5V_REG*%
X134300000Y-121350000D03*
%TO.P,R4,2*%
%TO.N,Net-(D5-A)*%
X134300000Y-122750000D03*
%TD*%
D29*
%TO.P,C15,1,IN_1*%
%TO.N,Net-(C15-IN)*%
X141099900Y-88399920D03*
D30*
%TO.P,C15,2,GND_2*%
%TO.N,GND_ADC*%
X140350000Y-87600000D03*
D31*
X140700000Y-87600000D03*
D32*
X141100000Y-87600000D03*
D31*
X141500000Y-87600000D03*
D30*
X141850000Y-87600000D03*
D29*
%TO.P,C15,3,OUT_3*%
%TO.N,+3.3V_ANA*%
X141099900Y-86799920D03*
%TD*%
D11*
%TO.P,C31,1*%
%TO.N,+12V_TPS*%
X159700000Y-110350000D03*
%TO.P,C31,2*%
%TO.N,GND_ADC*%
X159700000Y-111750000D03*
%TD*%
D26*
%TO.P,T4,1,1_1*%
%TO.N,+5V_REG*%
X137550000Y-125150000D03*
%TD*%
D33*
%TO.P,D5,1,K_1*%
%TO.N,GND_ADC*%
X132900000Y-124100000D03*
%TO.P,D5,2,A_2*%
%TO.N,Net-(D5-A)*%
X134300000Y-124100000D03*
%TD*%
D34*
%TO.P,FB6,1,1_1*%
%TO.N,Net-(FB6-Pad1)*%
X158400000Y-110325000D03*
%TO.P,FB6,2,2_2*%
%TO.N,Net-(FB6-Pad2)*%
X158400000Y-111675000D03*
%TD*%
D12*
%TO.P,C13,1*%
%TO.N,+3.3V_ISO*%
X133494300Y-96000000D03*
%TO.P,C13,2*%
%TO.N,GND_ADC*%
X134894300Y-96000000D03*
%TD*%
D13*
%TO.P,R20,1*%
%TO.N,/5 ADC/AIN3_ADC*%
X155800000Y-111800000D03*
%TO.P,R20,2*%
%TO.N,Net-(FB6-Pad2)*%
X157200000Y-111800000D03*
%TD*%
D27*
%TO.P,R3,1*%
%TO.N,+5V_REG*%
X130500000Y-121350000D03*
%TO.P,R3,2*%
%TO.N,GND_ADC*%
X130500000Y-124050000D03*
%TD*%
D19*
%TO.P,D21,1,K_1*%
%TO.N,/1 Conectores/Load_Cell-*%
X170642000Y-85550000D03*
%TO.P,D21,2,A_2*%
%TO.N,GND_ADC*%
X166558000Y-85550000D03*
%TD*%
D13*
%TO.P,R10,1*%
%TO.N,Net-(FB4-Pad1)*%
X158800000Y-91350000D03*
%TO.P,R10,2*%
%TO.N,Net-(U8-OUT)*%
X160200000Y-91350000D03*
%TD*%
%TO.P,R15,1*%
%TO.N,Net-(FB6-Pad1)*%
X157600000Y-109000000D03*
%TO.P,R15,2*%
%TO.N,GND_ADC*%
X156200000Y-109000000D03*
%TD*%
D34*
%TO.P,FB5,1,1_1*%
%TO.N,Net-(FB5-Pad1)*%
X158400000Y-101450000D03*
%TO.P,FB5,2,2_2*%
%TO.N,Net-(FB5-Pad2)*%
X158400000Y-102800000D03*
%TD*%
D11*
%TO.P,C17,1*%
%TO.N,GND_ADC*%
X144450000Y-98875000D03*
%TO.P,C17,2*%
%TO.N,+3.3V_IOVDD*%
X144450000Y-97475000D03*
%TD*%
%TO.P,C24,1*%
%TO.N,+2.5_VREF*%
X139500000Y-82950000D03*
%TO.P,C24,2*%
%TO.N,GND_ADC*%
X139500000Y-81550000D03*
%TD*%
D19*
%TO.P,D1,1,K_1*%
%TO.N,+24V*%
X128733000Y-127075000D03*
%TO.P,D1,2,A_2*%
%TO.N,GND_ADC*%
X132817000Y-127075000D03*
%TD*%
D11*
%TO.P,C41,1*%
%TO.N,+3.3V_ANA*%
X147400000Y-76750000D03*
%TO.P,C41,2*%
%TO.N,GND_ADC*%
X147400000Y-78150000D03*
%TD*%
D35*
%TO.P,U6,1,REGCAPD_1*%
%TO.N,Net-(U6-REGCAPD)*%
X143929100Y-92341600D03*
%TO.P,U6,2,IOVDD_2*%
%TO.N,Net-(C16-IN)*%
X144429100Y-92341600D03*
%TO.P,U6,3,DGND_3*%
%TO.N,GND_ADC*%
X144929100Y-92341600D03*
%TO.P,U6,4,AIN0_4*%
%TO.N,unconnected-(U6-AIN0-Pad4)*%
X145429100Y-92341600D03*
%TO.P,U6,5,AIN1_5*%
%TO.N,/5 ADC/AIN4_ADC*%
X145929100Y-92341600D03*
%TO.P,U6,6,AIN2_6*%
%TO.N,/5 ADC/AIN3_ADC*%
X146429100Y-92341600D03*
%TO.P,U6,7,AIN3_7*%
%TO.N,/5 ADC/AIN2_ADC*%
X146929100Y-92341600D03*
%TO.P,U6,8,AIN4_8*%
%TO.N,/5 ADC/AIN1_ADC*%
X147429100Y-92341600D03*
D36*
%TO.P,U6,9,AIN5_9*%
%TO.N,/5 ADC/AIN5_ADC_Load_Cell+*%
X148229100Y-91541600D03*
%TO.P,U6,10,AIN6_10*%
%TO.N,/5 ADC/AIN6_ADC_Load_Cell-*%
X148229100Y-91041600D03*
%TO.P,U6,11,AIN7_11*%
%TO.N,unconnected-(U6-AIN7-Pad11)*%
X148229100Y-90541600D03*
%TO.P,U6,12,REFIN1+_12*%
%TO.N,REFIN1+*%
X148229100Y-90041600D03*
%TO.P,U6,13,REFIN1-_13*%
%TO.N,GND_ADC*%
X148229100Y-89541600D03*
%TO.P,U6,14,AIN8_14*%
%TO.N,/5 ADC/Temp1_AIN8_ADC*%
X148229100Y-89041600D03*
%TO.P,U6,15,AIN9_15*%
%TO.N,/5 ADC/Temp2_AIN9_ADC*%
X148229100Y-88541600D03*
%TO.P,U6,16,AIN10_16*%
%TO.N,unconnected-(U6-AIN10-Pad16)*%
X148229100Y-88041600D03*
D35*
%TO.P,U6,17,AIN11_17*%
%TO.N,unconnected-(U6-AIN11-Pad17)*%
X147429100Y-87241600D03*
%TO.P,U6,18,AIN12_18*%
%TO.N,unconnected-(U6-AIN12-Pad18)*%
X146929100Y-87241600D03*
%TO.P,U6,19,AIN13_19*%
%TO.N,unconnected-(U6-AIN13-Pad19)*%
X146429100Y-87241600D03*
%TO.P,U6,20,REFIN2+/AIN14_20*%
%TO.N,+2.5_VREF*%
X145929100Y-87241600D03*
%TO.P,U6,21,REFIN2-/AIN15_21*%
%TO.N,GND_ADC*%
X145429100Y-87241600D03*
%TO.P,U6,22,REFOUT_22*%
%TO.N,VREFADC*%
X144929100Y-87241600D03*
%TO.P,U6,23,AVSS_23*%
%TO.N,GND_ADC*%
X144429100Y-87241600D03*
%TO.P,U6,24,REGCAPA_24*%
%TO.N,Net-(U6-REGCAPA)*%
X143929100Y-87241600D03*
D36*
%TO.P,U6,25,PSW_25*%
%TO.N,unconnected-(U6-PSW-Pad25)*%
X143129100Y-88041600D03*
%TO.P,U6,26,AVDD_26*%
%TO.N,Net-(C15-IN)*%
X143129100Y-88541600D03*
%TO.P,U6,27,~{SYNC}_27*%
%TO.N,Net-(U6-~{SYNC})*%
X143129100Y-89041600D03*
%TO.P,U6,28,DOUT/~{RDY}_28*%
%TO.N,/4 Barreira digital/MISO_ADC_ISO*%
X143129100Y-89541600D03*
%TO.P,U6,29,DIN_29*%
%TO.N,/4 Barreira digital/MOSI_ADC_ISO*%
X143129100Y-90041600D03*
%TO.P,U6,30,SCLK_30*%
%TO.N,/4 Barreira digital/CLK_ADC_ISO*%
X143129100Y-90541600D03*
%TO.P,U6,31,CLK_31*%
%TO.N,unconnected-(U6-CLK-Pad31)*%
X143129100Y-91041600D03*
%TO.P,U6,32,~{CS}_32*%
%TO.N,/4 Barreira digital/CS_ADC_ISO*%
X143129100Y-91541600D03*
D37*
%TO.P,U6,33,EP_33*%
%TO.N,GND_ADC*%
X144679100Y-90791600D03*
X145679100Y-90791600D03*
X146679100Y-90791600D03*
X144679100Y-89791600D03*
X145679100Y-89791600D03*
D38*
X145679100Y-89791600D03*
D37*
X146679100Y-89791600D03*
X144679100Y-88791600D03*
X145679100Y-88791600D03*
X146679100Y-88791600D03*
%TD*%
D12*
%TO.P,C40,1*%
%TO.N,IEXC_OUT*%
X174700000Y-77800000D03*
%TO.P,C40,2*%
%TO.N,GND_ADC*%
X176100000Y-77800000D03*
%TD*%
D39*
%TO.P,U13,1,IN_1*%
%TO.N,+3.3V_ANA*%
X145250000Y-79350000D03*
%TO.P,U13,2,GND_2*%
%TO.N,GND_ADC*%
X144300000Y-79350000D03*
%TO.P,U13,3,EN_3*%
%TO.N,+3.3V_ANA*%
X143350000Y-79350000D03*
%TO.P,U13,4,NC_4*%
%TO.N,unconnected-(U13-NC-Pad4)*%
X143350000Y-81950000D03*
%TO.P,U13,5,OUT_5*%
%TO.N,/7 Celula de carga/+2V5_EXC*%
X145250000Y-81950000D03*
%TD*%
D27*
%TO.P,F6,1*%
%TO.N,+24V_ADC*%
X173600000Y-116750000D03*
%TO.P,F6,2*%
%TO.N,/1 Conectores/+24V_AIN4*%
X173600000Y-114050000D03*
%TD*%
D19*
%TO.P,D7,1,K_1*%
%TO.N,/1 Conectores/AIN2*%
X170642000Y-102000000D03*
%TO.P,D7,2,A_2*%
%TO.N,GND_ADC*%
X166558000Y-102000000D03*
%TD*%
D40*
%TO.P,D18,1,K_1*%
%TO.N,GND_ADC*%
X160350000Y-127700000D03*
%TO.P,D18,2,A_2*%
%TO.N,Net-(D18-A)*%
X160350000Y-129100000D03*
%TD*%
D12*
%TO.P,C28,1*%
%TO.N,GND_ADC*%
X154400000Y-101400000D03*
%TO.P,C28,2*%
%TO.N,/5 ADC/AIN2_ADC*%
X155800000Y-101400000D03*
%TD*%
D41*
%TO.P,D2,1,K_1*%
%TO.N,+24V_ADC*%
X131200000Y-129850000D03*
%TO.P,D2,2,A_2*%
%TO.N,Net-(D2-A)*%
X131200000Y-132750000D03*
%TD*%
D24*
%TO.P,R24,1*%
%TO.N,/6 Lacos 4-20mA/VSNS*%
X149400000Y-106200000D03*
%TO.P,R24,2*%
%TO.N,GND_ADC*%
X149400000Y-107600000D03*
%TD*%
D11*
%TO.P,C23,1*%
%TO.N,+3.3V_ANA*%
X130500000Y-81680000D03*
%TO.P,C23,2*%
%TO.N,GND_ADC*%
X130500000Y-83080000D03*
%TD*%
D13*
%TO.P,R14,1*%
%TO.N,Net-(FB5-Pad1)*%
X157600000Y-100000000D03*
%TO.P,R14,2*%
%TO.N,GND_ADC*%
X156200000Y-100000000D03*
%TD*%
%TO.P,R25,1*%
%TO.N,+12V_TPS*%
X146300000Y-101800000D03*
%TO.P,R25,2*%
%TO.N,Net-(U12-FB)*%
X144900000Y-101800000D03*
%TD*%
D24*
%TO.P,R23,1*%
%TO.N,/6 Lacos 4-20mA/VSNS*%
X150900000Y-106200000D03*
%TO.P,R23,2*%
%TO.N,GND_ADC*%
X150900000Y-107600000D03*
%TD*%
D12*
%TO.P,C14,1*%
%TO.N,GND_ADC*%
X139599900Y-85400000D03*
%TO.P,C14,2*%
%TO.N,+3.3V_ANA*%
X140999900Y-85400000D03*
%TD*%
D42*
%TO.P,U3,1,IN_1*%
%TO.N,+5V_ADC*%
X134750000Y-114550000D03*
%TO.P,U3,2,GND_2*%
%TO.N,GND_ADC*%
X134750000Y-115500000D03*
%TO.P,U3,3,EN_3*%
%TO.N,Net-(U3-EN)*%
X134750000Y-116450000D03*
%TO.P,U3,4,BP_4*%
%TO.N,Net-(U3-BP)*%
X137350000Y-116450000D03*
%TO.P,U3,5,OUT_5*%
%TO.N,+3.3V_ANA*%
X137350000Y-114550000D03*
%TD*%
D24*
%TO.P,R39,1*%
%TO.N,VREFADC*%
X151700000Y-87200000D03*
%TO.P,R39,2*%
%TO.N,/5 ADC/Temp1_AIN8_ADC*%
X151700000Y-88600000D03*
%TD*%
D12*
%TO.P,C44,1*%
%TO.N,GND_ADC*%
X163000000Y-89900000D03*
%TO.P,C44,2*%
%TO.N,/5 ADC/AIN6_ADC_Load_Cell-*%
X161600000Y-89900000D03*
%TD*%
%TO.P,C11,1*%
%TO.N,GND_ADC*%
X135300000Y-112800000D03*
%TO.P,C11,2*%
%TO.N,+3.3V_ANA*%
X136700000Y-112800000D03*
%TD*%
D11*
%TO.P,C4,1*%
%TO.N,GND_ADC*%
X138000000Y-119950000D03*
%TO.P,C4,2*%
%TO.N,+5V_REG*%
X138000000Y-121350000D03*
%TD*%
D27*
%TO.P,R2,1*%
%TO.N,+5V_REG*%
X128275000Y-121350000D03*
%TO.P,R2,2*%
%TO.N,GND_ADC*%
X128275000Y-124050000D03*
%TD*%
D43*
%TO.P,U1,1,VIN_1*%
%TO.N,+24V_ADC*%
X145060000Y-128277800D03*
D44*
%TO.P,U1,2,GND_2*%
%TO.N,GND_ADC*%
X147600000Y-128277800D03*
%TO.P,U1,3,VOUT_3*%
%TO.N,+5V_REG*%
X150140000Y-128277800D03*
%TD*%
D24*
%TO.P,R8,1*%
%TO.N,VREFADC*%
X148000000Y-85200000D03*
%TO.P,R8,2*%
%TO.N,+2.5_VREF*%
X148000000Y-83800000D03*
%TD*%
D11*
%TO.P,C21,1*%
%TO.N,VREFADC*%
X146600000Y-85200000D03*
%TO.P,C21,2*%
%TO.N,GND_ADC*%
X146600000Y-83800000D03*
%TD*%
D13*
%TO.P,R17,1*%
%TO.N,Net-(FB7-Pad1)*%
X157600000Y-117400000D03*
%TO.P,R17,2*%
%TO.N,GND_ADC*%
X156200000Y-117400000D03*
%TD*%
D27*
%TO.P,F1,1*%
%TO.N,+24V*%
X128733000Y-129475000D03*
%TO.P,F1,2*%
%TO.N,Net-(D2-A)*%
X128733000Y-132175000D03*
%TD*%
D13*
%TO.P,R16,1*%
%TO.N,Net-(FB7-Pad1)*%
X158800000Y-117400000D03*
%TO.P,R16,2*%
%TO.N,Net-(U11-OUT)*%
X160200000Y-117400000D03*
%TD*%
%TO.P,R21,1*%
%TO.N,/5 ADC/AIN4_ADC*%
X155800000Y-120300000D03*
%TO.P,R21,2*%
%TO.N,Net-(FB7-Pad2)*%
X157200000Y-120300000D03*
%TD*%
D34*
%TO.P,FB4,1,1_1*%
%TO.N,Net-(FB4-Pad1)*%
X158400000Y-92825000D03*
%TO.P,FB4,2,2_2*%
%TO.N,Net-(FB4-Pad2)*%
X158400000Y-94175000D03*
%TD*%
D24*
%TO.P,R9,1*%
%TO.N,Net-(U6-~{SYNC})*%
X139100000Y-89041600D03*
%TO.P,R9,2*%
%TO.N,+3.3V_IOVDD*%
X139100000Y-90441600D03*
%TD*%
D11*
%TO.P,C45,1*%
%TO.N,GND_ADC*%
X158950000Y-78000000D03*
%TO.P,C45,2*%
%TO.N,/7 Celula de carga/IEXC2*%
X158950000Y-79400000D03*
%TD*%
D45*
%TO.P,U8,1,GND_1*%
%TO.N,GND_ADC*%
X164400000Y-93500000D03*
%TO.P,U8,2,MODE_2*%
X164400000Y-92850000D03*
%TO.P,U8,3,-Vs_3*%
X164400000Y-92200000D03*
%TO.P,U8,4,IN_4*%
%TO.N,/1 Conectores/AIN1*%
X164400000Y-91550000D03*
%TO.P,U8,5,OUT_5*%
%TO.N,Net-(U8-OUT)*%
X162125000Y-91550000D03*
%TO.P,U8,6,+Vs_6*%
%TO.N,+12V_TPS*%
X162125000Y-92200000D03*
%TO.P,U8,7,VSNS_7*%
%TO.N,/6 Lacos 4-20mA/VSNS*%
X162125000Y-92850000D03*
%TO.P,U8,8,SGOOD_8*%
%TO.N,unconnected-(U8-SGOOD-Pad8)*%
X162125000Y-93500000D03*
%TD*%
D46*
%TO.P,D23,1,K_1*%
%TO.N,/7 Celula de carga/IEXC2*%
X156900000Y-79350000D03*
%TO.P,D23,2,A_2*%
%TO.N,/7 Celula de carga/EXC_SEL*%
X156900000Y-76550000D03*
%TD*%
D12*
%TO.P,C8,1*%
%TO.N,DGND*%
X123500000Y-103650000D03*
%TO.P,C8,2*%
%TO.N,+3.3V*%
X124900000Y-103650000D03*
%TD*%
D11*
%TO.P,C18,1*%
%TO.N,GND_ADC*%
X145129100Y-83850000D03*
%TO.P,C18,2*%
%TO.N,VREFADC*%
X145129100Y-85250000D03*
%TD*%
D45*
%TO.P,U10,1,GND_1*%
%TO.N,GND_ADC*%
X164400000Y-110950000D03*
%TO.P,U10,2,MODE_2*%
X164400000Y-110300000D03*
%TO.P,U10,3,-Vs_3*%
X164400000Y-109650000D03*
%TO.P,U10,4,IN_4*%
%TO.N,/1 Conectores/AIN3*%
X164400000Y-109000000D03*
%TO.P,U10,5,OUT_5*%
%TO.N,Net-(U10-OUT)*%
X162125000Y-109000000D03*
%TO.P,U10,6,+Vs_6*%
%TO.N,+12V_TPS*%
X162125000Y-109650000D03*
%TO.P,U10,7,VSNS_7*%
%TO.N,/6 Lacos 4-20mA/VSNS*%
X162125000Y-110300000D03*
%TO.P,U10,8,SGOOD_8*%
%TO.N,unconnected-(U10-SGOOD-Pad8)*%
X162125000Y-110950000D03*
%TD*%
D13*
%TO.P,R26,1*%
%TO.N,Net-(U12-FB)*%
X143700000Y-101800000D03*
%TO.P,R26,2*%
%TO.N,GND_ADC*%
X142300000Y-101800000D03*
%TD*%
D47*
%TO.P,D22,1,A1_1*%
%TO.N,GND_ADC*%
X161700000Y-81850000D03*
%TO.P,D22,2,K2_2*%
%TO.N,+3.3V_ANA*%
X161700000Y-83750000D03*
%TO.P,D22,3,COM_3*%
%TO.N,REFIN1+*%
X163900000Y-82800000D03*
%TD*%
D21*
%TO.P,D13,1,K_1*%
%TO.N,/1 Conectores/+24V_AIN4*%
X170880000Y-115400000D03*
%TO.P,D13,2,A_2*%
%TO.N,GND_ADC*%
X166580000Y-115400000D03*
%TD*%
%TO.P,D9,1,K_1*%
%TO.N,/1 Conectores/+24V_AIN2*%
X170880000Y-98200000D03*
%TO.P,D9,2,A_2*%
%TO.N,GND_ADC*%
X166580000Y-98200000D03*
%TD*%
D27*
%TO.P,F5,1*%
%TO.N,+24V_ADC*%
X173600000Y-108350000D03*
%TO.P,F5,2*%
%TO.N,/1 Conectores/+24V_AIN3*%
X173600000Y-105650000D03*
%TD*%
D26*
%TO.P,T6,1,1_1*%
%TO.N,+3.3V_ANA*%
X128950000Y-76800000D03*
%TD*%
D12*
%TO.P,C27,1*%
%TO.N,GND_ADC*%
X154400000Y-92750000D03*
%TO.P,C27,2*%
%TO.N,/5 ADC/AIN1_ADC*%
X155800000Y-92750000D03*
%TD*%
D24*
%TO.P,R22,1*%
%TO.N,+12V_TPS*%
X150300000Y-101800000D03*
%TO.P,R22,2*%
%TO.N,/6 Lacos 4-20mA/VSNS*%
X150300000Y-103200000D03*
%TD*%
D11*
%TO.P,C48,1*%
%TO.N,/5 ADC/Temp2_AIN9_ADC*%
X150050000Y-87200000D03*
%TO.P,C48,2*%
%TO.N,/5 ADC/Temp1_AIN8_ADC*%
X150050000Y-88600000D03*
%TD*%
D48*
%TO.P,H1,1,Pin_1_1*%
%TO.N,/7 Celula de carga/EXC_SEL*%
X150010000Y-78430000D03*
D49*
%TO.P,H1,2,Pin_2_2*%
%TO.N,/7 Celula de carga/+2V5_EXC*%
X150010000Y-79700000D03*
%TO.P,H1,3,Pin_3_3*%
%TO.N,/7 Celula de carga/EXC_SEL*%
X151280000Y-78430000D03*
%TO.P,H1,4,Pin_4_4*%
%TO.N,+5V_ADC*%
X151280000Y-79700000D03*
%TO.P,H1,5,Pin_5_5*%
%TO.N,/7 Celula de carga/EXC_SEL*%
X152550000Y-78430000D03*
%TO.P,H1,6,Pin_6_6*%
%TO.N,+3.3V_ANA*%
X152550000Y-79700000D03*
%TD*%
D11*
%TO.P,C19,1*%
%TO.N,GND_ADC*%
X142500000Y-95100000D03*
%TO.P,C19,2*%
%TO.N,Net-(U6-REGCAPD)*%
X142500000Y-93700000D03*
%TD*%
D13*
%TO.P,R12,1*%
%TO.N,Net-(FB6-Pad1)*%
X158800000Y-109000000D03*
%TO.P,R12,2*%
%TO.N,Net-(U10-OUT)*%
X160200000Y-109000000D03*
%TD*%
D12*
%TO.P,C33,1*%
%TO.N,GND_ADC*%
X154400000Y-118900000D03*
%TO.P,C33,2*%
%TO.N,/5 ADC/AIN4_ADC*%
X155800000Y-118900000D03*
%TD*%
D13*
%TO.P,R13,1*%
%TO.N,Net-(FB4-Pad1)*%
X157600000Y-91350000D03*
%TO.P,R13,2*%
%TO.N,GND_ADC*%
X156200000Y-91350000D03*
%TD*%
D34*
%TO.P,FB2,1,1_1*%
%TO.N,+3.3V_IOVDD*%
X138000000Y-111575000D03*
%TO.P,FB2,2,2_2*%
%TO.N,+3.3V_ANA*%
X138000000Y-112925000D03*
%TD*%
D26*
%TO.P,T5,1,1_1*%
%TO.N,+3.3V*%
X125000000Y-94350000D03*
%TD*%
D19*
%TO.P,D20,1,K_1*%
%TO.N,/1 Conectores/Load_Cell+*%
X170642000Y-82250000D03*
%TO.P,D20,2,A_2*%
%TO.N,GND_ADC*%
X166558000Y-82250000D03*
%TD*%
D28*
%TO.P,D14,1,A1_1*%
%TO.N,GND_ADC*%
X156750000Y-87800000D03*
%TO.P,D14,2,K2_2*%
%TO.N,+3.3V_ANA*%
X154850000Y-87800000D03*
%TO.P,D14,3,COM_3*%
%TO.N,/5 ADC/AIN1_ADC*%
X155800000Y-90000000D03*
%TD*%
D10*
%TO.P,Fid2,*%
%TO.N,*%
X121400000Y-77100000D03*
%TD*%
D50*
%TO.P,D4,1,K_1*%
%TO.N,+5V_REG*%
X136200000Y-121350000D03*
%TO.P,D4,2,A_2*%
%TO.N,GND_ADC*%
X136200000Y-118050000D03*
%TD*%
D12*
%TO.P,C30,1*%
%TO.N,GND_ADC*%
X154400000Y-110400000D03*
%TO.P,C30,2*%
%TO.N,/5 ADC/AIN3_ADC*%
X155800000Y-110400000D03*
%TD*%
D11*
%TO.P,C29,1*%
%TO.N,+12V_TPS*%
X159700000Y-101400000D03*
%TO.P,C29,2*%
%TO.N,GND_ADC*%
X159700000Y-102800000D03*
%TD*%
D21*
%TO.P,D10,1,K_1*%
%TO.N,/1 Conectores/+24V_AIN1*%
X170880000Y-89400000D03*
%TO.P,D10,2,A_2*%
%TO.N,GND_ADC*%
X166580000Y-89400000D03*
%TD*%
D11*
%TO.P,C37,1*%
%TO.N,/6 Lacos 4-20mA/VSNS*%
X147900000Y-106250000D03*
%TO.P,C37,2*%
%TO.N,GND_ADC*%
X147900000Y-107650000D03*
%TD*%
D28*
%TO.P,D15,1,A1_1*%
%TO.N,GND_ADC*%
X156750000Y-96400000D03*
%TO.P,D15,2,K2_2*%
%TO.N,+3.3V_ANA*%
X154850000Y-96400000D03*
%TO.P,D15,3,COM_3*%
%TO.N,/5 ADC/AIN2_ADC*%
X155800000Y-98600000D03*
%TD*%
%TO.P,D24,1,A1_1*%
%TO.N,GND_ADC*%
X158300000Y-80800000D03*
%TO.P,D24,2,K2_2*%
%TO.N,+3.3V_ANA*%
X156400000Y-80800000D03*
%TO.P,D24,3,COM_3*%
%TO.N,/5 ADC/AIN5_ADC_Load_Cell+*%
X157350000Y-83000000D03*
%TD*%
D19*
%TO.P,D8,1,K_1*%
%TO.N,/1 Conectores/AIN3*%
X170642000Y-110600000D03*
%TO.P,D8,2,A_2*%
%TO.N,GND_ADC*%
X166558000Y-110600000D03*
%TD*%
D34*
%TO.P,FB1,1,1_1*%
%TO.N,+5V_REG*%
X129900000Y-119750000D03*
%TO.P,FB1,2,2_2*%
%TO.N,+5V_ADC*%
X129900000Y-118400000D03*
%TD*%
D13*
%TO.P,R6,1*%
%TO.N,+3.3V_ANA*%
X133550000Y-108700000D03*
%TO.P,R6,2*%
%TO.N,Net-(U4-REF)*%
X134950000Y-108700000D03*
%TD*%
D26*
%TO.P,T3,1,1_1*%
%TO.N,DGND*%
X125000000Y-89850000D03*
%TD*%
D34*
%TO.P,FB7,1,1_1*%
%TO.N,Net-(FB7-Pad1)*%
X158400000Y-118925000D03*
%TO.P,FB7,2,2_2*%
%TO.N,Net-(FB7-Pad2)*%
X158400000Y-120275000D03*
%TD*%
D29*
%TO.P,C16,1,IN_1*%
%TO.N,Net-(C16-IN)*%
X144429300Y-93600000D03*
D30*
%TO.P,C16,2,GND_2*%
%TO.N,GND_ADC*%
X145179200Y-94399920D03*
D31*
X144829200Y-94399920D03*
D32*
X144429200Y-94399920D03*
D31*
X144029200Y-94399920D03*
D30*
X143679200Y-94399920D03*
D29*
%TO.P,C16,3,OUT_3*%
%TO.N,+3.3V_IOVDD*%
X144429300Y-95200000D03*
%TD*%
D13*
%TO.P,R7,1*%
%TO.N,Net-(U4-REF)*%
X136150000Y-108700000D03*
%TO.P,R7,2*%
%TO.N,GND_ADC*%
X137550000Y-108700000D03*
%TD*%
D39*
%TO.P,U2,1*%
%TO.N,+5V*%
X126600000Y-107700000D03*
%TO.P,U2,2*%
%TO.N,DGND*%
X127550000Y-107700000D03*
%TO.P,U2,3*%
%TO.N,+5V*%
X128500000Y-107700000D03*
%TO.P,U2,4*%
%TO.N,unconnected-(U2-BP-Pad4)*%
X128500000Y-105100000D03*
%TO.P,U2,5*%
%TO.N,+3.3V*%
X126600000Y-105100000D03*
%TD*%
D11*
%TO.P,C26,1*%
%TO.N,+12V_TPS*%
X159700000Y-92750000D03*
%TO.P,C26,2*%
%TO.N,GND_ADC*%
X159700000Y-94150000D03*
%TD*%
%TO.P,C32,1*%
%TO.N,+12V_TPS*%
X159700000Y-119000000D03*
%TO.P,C32,2*%
%TO.N,GND_ADC*%
X159700000Y-120400000D03*
%TD*%
D12*
%TO.P,C43,1*%
%TO.N,/5 ADC/AIN5_ADC_Load_Cell+*%
X161600000Y-85700000D03*
%TO.P,C43,2*%
%TO.N,GND_ADC*%
X163000000Y-85700000D03*
%TD*%
%TO.P,C6,1*%
%TO.N,DGND*%
X128950000Y-110575000D03*
%TO.P,C6,2*%
%TO.N,+5V*%
X127550000Y-110575000D03*
%TD*%
%TO.P,C12,1*%
%TO.N,GND_ADC*%
X135300000Y-110850000D03*
%TO.P,C12,2*%
%TO.N,+3.3V_ANA*%
X136700000Y-110850000D03*
%TD*%
D24*
%TO.P,R27,1*%
%TO.N,+24V_ADC*%
X160350000Y-131975000D03*
%TO.P,R27,2*%
%TO.N,Net-(D18-A)*%
X160350000Y-130575000D03*
%TD*%
D27*
%TO.P,F3,1*%
%TO.N,+24V_ADC*%
X173600000Y-101150000D03*
%TO.P,F3,2*%
%TO.N,/1 Conectores/+24V_AIN2*%
X173600000Y-98450000D03*
%TD*%
D24*
%TO.P,R32,1*%
%TO.N,/1 Conectores/Load_Cell-*%
X164450000Y-88675000D03*
%TO.P,R32,2*%
%TO.N,/5 ADC/AIN6_ADC_Load_Cell-*%
X164450000Y-90075000D03*
%TD*%
%TO.P,R29,1*%
%TO.N,REFIN1+*%
X150050000Y-89850000D03*
%TO.P,R29,2*%
%TO.N,GND_ADC*%
X150050000Y-91250000D03*
%TD*%
D34*
%TO.P,FB3,1,1_1*%
%TO.N,+3.3V_ANA*%
X139200000Y-112925000D03*
%TO.P,FB3,2,2_2*%
%TO.N,+3.3V_ISO*%
X139200000Y-111575000D03*
%TD*%
D11*
%TO.P,C7,1*%
%TO.N,GND_ADC*%
X133800000Y-111400000D03*
%TO.P,C7,2*%
%TO.N,+5V_ADC*%
X133800000Y-112800000D03*
%TD*%
D26*
%TO.P,T2,1,1_1*%
%TO.N,GND_ADC*%
X125800000Y-131600000D03*
%TD*%
D45*
%TO.P,U11,1,GND_1*%
%TO.N,GND_ADC*%
X164400000Y-119550000D03*
%TO.P,U11,2,MODE_2*%
X164400000Y-118900000D03*
%TO.P,U11,3,-Vs_3*%
X164400000Y-118250000D03*
%TO.P,U11,4,IN_4*%
%TO.N,/1 Conectores/AIN4*%
X164400000Y-117600000D03*
%TO.P,U11,5,OUT_5*%
%TO.N,Net-(U11-OUT)*%
X162125000Y-117600000D03*
%TO.P,U11,6,+Vs_6*%
%TO.N,+12V_TPS*%
X162125000Y-118250000D03*
%TO.P,U11,7,VSNS_7*%
%TO.N,/6 Lacos 4-20mA/VSNS*%
X162125000Y-118900000D03*
%TO.P,U11,8,SGOOD_8*%
%TO.N,unconnected-(U11-SGOOD-Pad8)*%
X162125000Y-119550000D03*
%TD*%
D19*
%TO.P,D11,1,K_1*%
%TO.N,/1 Conectores/AIN4*%
X170642000Y-119200000D03*
%TO.P,D11,2,A_2*%
%TO.N,GND_ADC*%
X166558000Y-119200000D03*
%TD*%
D51*
%TO.P,C5,1*%
%TO.N,GND_ADC*%
X132625000Y-119450000D03*
%TO.P,C5,2*%
%TO.N,+5V_REG*%
X132625000Y-121350000D03*
%TD*%
D11*
%TO.P,C22,1*%
%TO.N,+3.3V_ANA*%
X128950000Y-81680000D03*
%TO.P,C22,2*%
%TO.N,GND_ADC*%
X128950000Y-83080000D03*
%TD*%
D45*
%TO.P,U9,1,GND_1*%
%TO.N,GND_ADC*%
X164400000Y-101950000D03*
%TO.P,U9,2,MODE_2*%
X164400000Y-101300000D03*
%TO.P,U9,3,-Vs_3*%
X164400000Y-100650000D03*
%TO.P,U9,4,IN_4*%
%TO.N,/1 Conectores/AIN2*%
X164400000Y-100000000D03*
%TO.P,U9,5,OUT_5*%
%TO.N,Net-(U9-OUT)*%
X162125000Y-100000000D03*
%TO.P,U9,6,+Vs_6*%
%TO.N,+12V_TPS*%
X162125000Y-100650000D03*
%TO.P,U9,7,VSNS_7*%
%TO.N,/6 Lacos 4-20mA/VSNS*%
X162125000Y-101300000D03*
%TO.P,U9,8,SGOOD_8*%
%TO.N,unconnected-(U9-SGOOD-Pad8)*%
X162125000Y-101950000D03*
%TD*%
D52*
%TO.P,P2,1*%
%TO.N,unconnected-(P2-Pin_1-Pad1)*%
X176512100Y-80878800D03*
D53*
%TO.P,P2,2*%
%TO.N,IEXC_OUT*%
X176512100Y-83418800D03*
%TO.P,P2,3*%
%TO.N,/1 Conectores/Load_Cell+*%
X176512100Y-85958800D03*
%TO.P,P2,4*%
%TO.N,/1 Conectores/Load_Cell-*%
X176512100Y-88498800D03*
%TO.P,P2,5*%
%TO.N,GND_ADC*%
X176512100Y-91038800D03*
%TO.P,P2,6*%
%TO.N,/1 Conectores/+24V_AIN1*%
X176512100Y-93578800D03*
%TO.P,P2,7*%
%TO.N,/1 Conectores/AIN1*%
X176512100Y-96118800D03*
%TO.P,P2,8*%
%TO.N,/1 Conectores/+24V_AIN2*%
X176512100Y-98658800D03*
%TO.P,P2,9*%
%TO.N,/1 Conectores/AIN2*%
X176512100Y-101198800D03*
%TO.P,P2,10*%
%TO.N,/1 Conectores/+24V_AIN3*%
X176512100Y-103738800D03*
%TO.P,P2,11*%
%TO.N,/1 Conectores/AIN3*%
X176512100Y-106278800D03*
%TO.P,P2,12*%
%TO.N,/1 Conectores/+24V_AIN4*%
X176512100Y-108818800D03*
%TO.P,P2,13*%
%TO.N,/1 Conectores/AIN4*%
X176512100Y-111358800D03*
%TO.P,P2,14*%
%TO.N,GND_ADC*%
X176512100Y-113898800D03*
%TD*%
D26*
%TO.P,T7,1,1_1*%
%TO.N,GND_ADC*%
X176200000Y-128200000D03*
%TD*%
D52*
%TO.P,P1,1*%
%TO.N,/1 Conectores/USB1*%
X120505100Y-80878800D03*
D53*
%TO.P,P1,2*%
%TO.N,/1 Conectores/USB2*%
X120505100Y-83418800D03*
%TO.P,P1,3*%
%TO.N,DGND*%
X120505100Y-85958800D03*
%TO.P,P1,4*%
%TO.N,/MOSI*%
X120505100Y-88498800D03*
%TO.P,P1,5*%
%TO.N,/CLK*%
X120505100Y-91038800D03*
%TO.P,P1,6*%
%TO.N,/MISO*%
X120505100Y-93578800D03*
%TO.P,P1,7*%
%TO.N,/1 Conectores/CS_DAC*%
X120505100Y-96118800D03*
%TO.P,P1,8*%
%TO.N,/1 Conectores/LDAC_DAC*%
X120505100Y-98658800D03*
%TO.P,P1,9*%
%TO.N,/CS_ADC*%
X120505100Y-101198800D03*
%TO.P,P1,10*%
%TO.N,/1 Conectores/CS4*%
X120505100Y-103738800D03*
%TO.P,P1,11*%
%TO.N,/1 Conectores/ID1*%
X120505100Y-106278800D03*
%TO.P,P1,12*%
%TO.N,DGND*%
X120505100Y-108818800D03*
%TO.P,P1,13*%
%TO.N,/1 Conectores/ID3*%
X120505100Y-111358800D03*
%TO.P,P1,14*%
%TO.N,/1 Conectores/SDA*%
X120505100Y-113898800D03*
%TO.P,P1,15*%
%TO.N,/1 Conectores/SCL*%
X120505100Y-116438800D03*
%TO.P,P1,16*%
%TO.N,DGND*%
X120505100Y-118978800D03*
%TO.P,P1,17*%
%TO.N,+5V*%
X120505100Y-121518800D03*
%TO.P,P1,18*%
%TO.N,unconnected-(P1-Pin_18-Pad18)*%
X120505100Y-124058800D03*
%TO.P,P1,19*%
%TO.N,GND_ADC*%
X120505100Y-126598800D03*
%TO.P,P1,20*%
%TO.N,+24V*%
X120505100Y-129138800D03*
%TD*%
D26*
%TO.P,T1,1,1_1*%
%TO.N,+24V*%
X124800000Y-127050000D03*
%TD*%
D54*
%TO.N,GND_ADC*%
X160350000Y-126850000D03*
X160400000Y-77100000D03*
X141500000Y-95100000D03*
D55*
X134350000Y-127175000D03*
D54*
X165150000Y-84700000D03*
X159550000Y-80800000D03*
X130500000Y-84100000D03*
X134400000Y-110450000D03*
X164337500Y-94550000D03*
X156750000Y-104450000D03*
X139850000Y-115050000D03*
X158100000Y-87600000D03*
X159700000Y-95250000D03*
X161700000Y-80550000D03*
X128275000Y-125050000D03*
X139600000Y-86300000D03*
X164400000Y-111900000D03*
X142360000Y-86300000D03*
X153050000Y-130550000D03*
X130500000Y-125075000D03*
X133494300Y-103400000D03*
X166454000Y-95350000D03*
X155600000Y-128050000D03*
X147600000Y-129577800D03*
X165203422Y-90782319D03*
X157100000Y-101300000D03*
X153800000Y-108900000D03*
X144300000Y-78350000D03*
X135200000Y-104200000D03*
X157100000Y-118900000D03*
X157000000Y-92450000D03*
X137550000Y-107600000D03*
X153700000Y-99300000D03*
X134000000Y-119450000D03*
X163000000Y-84100000D03*
X133525000Y-115850000D03*
X144150000Y-83800000D03*
X150900000Y-108600000D03*
X157200000Y-110400000D03*
X132350000Y-85450000D03*
X164400000Y-102900000D03*
X135800000Y-96000000D03*
X166454000Y-112800000D03*
X154400000Y-117800000D03*
X166700000Y-79900000D03*
X147400000Y-79250000D03*
X149650000Y-81100000D03*
X159700000Y-112725000D03*
X159700000Y-103800000D03*
X132900000Y-125050000D03*
X137700000Y-118050000D03*
X128950000Y-84050000D03*
X139500000Y-80700000D03*
X177100000Y-77800000D03*
X158200000Y-96400000D03*
X149400000Y-108600000D03*
X145500000Y-98900000D03*
X159050000Y-121150000D03*
X164337500Y-120400000D03*
X158930000Y-83660000D03*
X150950000Y-91250000D03*
X138000000Y-119050000D03*
X141200000Y-80700000D03*
X133758596Y-110653510D03*
X141900000Y-103700000D03*
X158300000Y-113800000D03*
X166454000Y-104100000D03*
X153600000Y-92750000D03*
X142300000Y-102850000D03*
X158550000Y-129800000D03*
%TO.N,REFIN1+*%
X164850000Y-82850000D03*
D55*
X152700000Y-84900000D03*
D54*
%TO.N,+5V_ADC*%
X134400000Y-117250000D03*
X152550000Y-93200000D03*
X139900000Y-103400000D03*
X133600000Y-114600000D03*
X153500000Y-88500000D03*
X152550000Y-97650000D03*
X151200000Y-100200000D03*
%TO.N,+12V_TPS*%
X159200000Y-107500000D03*
X159500000Y-115800000D03*
X160550000Y-110350000D03*
X159700000Y-98800000D03*
X160500000Y-101475000D03*
X160516893Y-118420607D03*
%TO.N,+24V_ADC*%
X173600000Y-109500000D03*
X150800000Y-133400000D03*
X141200000Y-109600000D03*
X173600000Y-102300000D03*
X138800000Y-129850000D03*
X173600000Y-120800000D03*
X141200000Y-112850000D03*
X173600000Y-118000000D03*
X173600000Y-94500000D03*
X140850000Y-129850000D03*
D55*
%TO.N,+3.3V*%
X122825000Y-99750000D03*
D54*
%TO.N,DGND*%
X123500000Y-106000000D03*
X127994300Y-103400000D03*
X128950000Y-111575000D03*
X126644087Y-98612500D03*
X127200000Y-95900000D03*
X127585000Y-108725000D03*
X123450000Y-102700000D03*
%TO.N,+3.3V_ANA*%
X154850000Y-104500000D03*
X154850000Y-86950000D03*
X154500000Y-76850000D03*
X160450000Y-80800000D03*
X154850000Y-112800000D03*
X151500000Y-109800000D03*
X154850000Y-95550000D03*
X154750000Y-79450000D03*
X142300000Y-82000000D03*
X142300000Y-84100000D03*
%TO.N,+2.5_VREF*%
X148000000Y-82950000D03*
X145950000Y-86250000D03*
%TO.N,/CS_ADC*%
X125800000Y-100517500D03*
%TO.N,+3.3V_ISO*%
X134800000Y-97977500D03*
X134800000Y-101787500D03*
%TO.N,/4 Barreira digital/MISO_ADC_ISO*%
X136000000Y-101152500D03*
X136000000Y-98600000D03*
%TO.N,/5 ADC/Temp2_AIN9_ADC*%
X150050000Y-86200000D03*
X152300000Y-81950000D03*
%TO.N,/5 ADC/AIN6_ADC_Load_Cell-*%
X159050000Y-87300000D03*
X160900000Y-87300000D03*
%TO.N,+3.3V_IOVDD*%
X139100000Y-107400000D03*
X139100000Y-105000000D03*
X139100000Y-96250000D03*
X139100000Y-91400000D03*
%TO.N,/6 Lacos 4-20mA/VSNS*%
X161300000Y-113200000D03*
X161300000Y-106200000D03*
X161287500Y-121512500D03*
X161300000Y-98100000D03*
%TD*%
%TO.N,GND_ADC*%
D56*
X166558000Y-102000000D02*
X164450000Y-102000000D01*
X133800000Y-110694914D02*
X133758596Y-110653510D01*
D57*
X165203422Y-90696578D02*
X166500000Y-89400000D01*
D56*
X156750000Y-104450000D02*
X156750000Y-105400000D01*
X164400000Y-102900000D02*
X164400000Y-100650000D01*
X134900000Y-110450000D02*
X135300000Y-110850000D01*
X135300000Y-110850000D02*
X135300000Y-112800000D01*
X157100000Y-101200000D02*
X156200000Y-100300000D01*
X155600000Y-129025000D02*
X155600000Y-128050000D01*
X130500000Y-84100000D02*
X130500000Y-83080000D01*
X144300000Y-79350000D02*
X144300000Y-78350000D01*
D57*
X139600000Y-85400000D02*
X139600000Y-86300000D01*
D56*
X144929100Y-91041600D02*
X144679100Y-90791600D01*
X159700000Y-95250000D02*
X159700000Y-94150000D01*
X142300000Y-102850000D02*
X142300000Y-101800000D01*
X154400000Y-92750000D02*
X153500000Y-92750000D01*
X130500000Y-125075000D02*
X130500000Y-124050000D01*
X144429100Y-88541600D02*
X144679100Y-88791600D01*
X166454000Y-106674000D02*
X166580000Y-106800000D01*
X166454000Y-102104000D02*
X166558000Y-102000000D01*
X154400000Y-100000000D02*
X154400000Y-101400000D01*
X146535000Y-106285000D02*
X145945000Y-106285000D01*
X134987500Y-98612500D02*
X135600000Y-98000000D01*
X133925000Y-115450000D02*
X134200000Y-115450000D01*
X158200000Y-96400000D02*
X156750000Y-96400000D01*
X144325000Y-103650000D02*
X144325000Y-104985000D01*
X147600000Y-129577800D02*
X147600000Y-128277800D01*
X133800000Y-111400000D02*
X133800000Y-110694914D01*
X137550000Y-108700000D02*
X137550000Y-107600000D01*
D57*
X166500000Y-89400000D02*
X166580000Y-89400000D01*
D56*
X157100000Y-118600000D02*
X157100000Y-118900000D01*
X166454000Y-98074000D02*
X166580000Y-98200000D01*
X149550000Y-81950000D02*
X149550000Y-81200000D01*
X166454000Y-104100000D02*
X166454000Y-106674000D01*
X144150000Y-83800000D02*
X146600000Y-83800000D01*
X166208000Y-92850000D02*
X166558000Y-93200000D01*
X144429100Y-87241600D02*
X144429100Y-88541600D01*
X177100000Y-77800000D02*
X176100000Y-77800000D01*
X154400000Y-109500000D02*
X154400000Y-110400000D01*
X160400000Y-78200000D02*
X159000000Y-78200000D01*
X132917000Y-127175000D02*
X132817000Y-127075000D01*
D57*
X158290000Y-84300000D02*
X158930000Y-83660000D01*
D56*
X159700000Y-120500000D02*
X159700000Y-120400000D01*
X159700000Y-112725000D02*
X159700000Y-111800000D01*
X133525000Y-115850000D02*
X133925000Y-115450000D01*
X145500000Y-98900000D02*
X144475000Y-98900000D01*
X134400000Y-110450000D02*
X134900000Y-110450000D01*
X146929100Y-89541600D02*
X146679100Y-89791600D01*
X147185000Y-105315000D02*
X145945000Y-105315000D01*
X135247150Y-96000000D02*
X134894300Y-96000000D01*
X166454000Y-104100000D02*
X166454000Y-102104000D01*
X158300000Y-113800000D02*
X156750000Y-113800000D01*
X145429100Y-87241600D02*
X145429100Y-88541600D01*
X148300000Y-104750000D02*
X147750000Y-104750000D01*
D57*
X158300000Y-80800000D02*
X159550000Y-80800000D01*
D56*
X132350000Y-85450000D02*
X132350000Y-84290000D01*
X159700000Y-103800000D02*
X159700000Y-102800000D01*
D57*
X160400000Y-78200000D02*
X160400000Y-77100000D01*
D56*
X134000000Y-119450000D02*
X132625000Y-119450000D01*
X166454000Y-95350000D02*
X166454000Y-93304000D01*
X166454000Y-112800000D02*
X166454000Y-115274000D01*
X147750000Y-104750000D02*
X147185000Y-105315000D01*
X147950000Y-107600000D02*
X147900000Y-107650000D01*
X150900000Y-108600000D02*
X150900000Y-107600000D01*
X141900000Y-104875000D02*
X141900000Y-103700000D01*
D57*
X150050000Y-91250000D02*
X150950000Y-91250000D01*
D56*
X153050000Y-130550000D02*
X152050000Y-130550000D01*
D57*
X163000000Y-90500000D02*
X163000000Y-89900000D01*
D56*
X148350000Y-104800000D02*
X148300000Y-104750000D01*
X166700000Y-82108000D02*
X166700000Y-79900000D01*
X166258000Y-110300000D02*
X166558000Y-110600000D01*
D57*
X163300000Y-90800000D02*
X163000000Y-90500000D01*
D56*
X132900000Y-125050000D02*
X132900000Y-124100000D01*
X159050000Y-121150000D02*
X159700000Y-120500000D01*
X137700000Y-118050000D02*
X136200000Y-118050000D01*
X166454000Y-93304000D02*
X166558000Y-93200000D01*
D57*
X163000000Y-85700000D02*
X163000000Y-84100000D01*
X166400000Y-106620000D02*
X166580000Y-106800000D01*
D56*
X144929100Y-92341600D02*
X144929100Y-91041600D01*
X134350000Y-127175000D02*
X132917000Y-127175000D01*
D57*
X166558000Y-85550000D02*
X166000000Y-85550000D01*
D56*
X157100000Y-101300000D02*
X157100000Y-101200000D01*
X152050000Y-130550000D02*
X152000000Y-130600000D01*
X144475000Y-98900000D02*
X144450000Y-98875000D01*
D57*
X165185741Y-90800000D02*
X163300000Y-90800000D01*
D56*
X164400000Y-111900000D02*
X164400000Y-109650000D01*
X156200000Y-91650000D02*
X156200000Y-91350000D01*
X157000000Y-92450000D02*
X156200000Y-91650000D01*
X153800000Y-108900000D02*
X154400000Y-109500000D01*
X148229100Y-89541600D02*
X146929100Y-89541600D01*
X166454000Y-115274000D02*
X166580000Y-115400000D01*
X144325000Y-104985000D02*
X144655000Y-105315000D01*
X164450000Y-102000000D02*
X164400000Y-101950000D01*
D57*
X166000000Y-85550000D02*
X165150000Y-84700000D01*
X165203422Y-90782319D02*
X165185741Y-90800000D01*
D56*
X139850000Y-115050000D02*
X138950000Y-115050000D01*
X128950000Y-84050000D02*
X128950000Y-83080000D01*
X156200000Y-117700000D02*
X157100000Y-118600000D01*
X138000000Y-119950000D02*
X138000000Y-119050000D01*
X133494300Y-103400000D02*
X133494300Y-102421500D01*
X133494300Y-98612500D02*
X134987500Y-98612500D01*
X141500000Y-95100000D02*
X142500000Y-95100000D01*
X149550000Y-81200000D02*
X149650000Y-81100000D01*
X156200000Y-117400000D02*
X156200000Y-117700000D01*
X156200000Y-100300000D02*
X156200000Y-100000000D01*
X166454000Y-110704000D02*
X166558000Y-110600000D01*
D57*
X165203422Y-90782319D02*
X165203422Y-90696578D01*
D56*
X160350000Y-127700000D02*
X160350000Y-126700000D01*
X166258000Y-118900000D02*
X166558000Y-119200000D01*
X158550000Y-129800000D02*
X158550000Y-129650000D01*
X145429100Y-88541600D02*
X145679100Y-88791600D01*
X139000000Y-115000000D02*
X138950000Y-115050000D01*
X147900000Y-107650000D02*
X146535000Y-106285000D01*
X141200000Y-81635000D02*
X141200000Y-80700000D01*
X154400000Y-118900000D02*
X154400000Y-117800000D01*
X158550000Y-130575000D02*
X158550000Y-129800000D01*
D57*
X161700000Y-81850000D02*
X161700000Y-80550000D01*
X142360000Y-85400000D02*
X142360000Y-86300000D01*
D56*
X149400000Y-108600000D02*
X149400000Y-107600000D01*
X166454000Y-95350000D02*
X166454000Y-98074000D01*
X164400000Y-92850000D02*
X166208000Y-92850000D01*
X156200000Y-109400000D02*
X157200000Y-110400000D01*
X156200000Y-109000000D02*
X156200000Y-109400000D01*
X153700000Y-99300000D02*
X154400000Y-100000000D01*
X135800000Y-96000000D02*
X134894300Y-96000000D01*
X139500000Y-81635000D02*
X139500000Y-80700000D01*
X147400000Y-80350000D02*
X147400000Y-78150000D01*
D57*
X166700000Y-77742000D02*
X166700000Y-79900000D01*
D56*
X164337500Y-94550000D02*
X164337500Y-92200000D01*
X166454000Y-112800000D02*
X166454000Y-110704000D01*
D57*
X165800000Y-79900000D02*
X166700000Y-79900000D01*
D56*
X166208000Y-110950000D02*
X166558000Y-110600000D01*
X135600000Y-98000000D02*
X135600000Y-96352850D01*
X166558000Y-82250000D02*
X166700000Y-82108000D01*
D57*
X166558000Y-77600000D02*
X166700000Y-77742000D01*
D56*
X164337500Y-120400000D02*
X164337500Y-118250000D01*
X164337500Y-118900000D02*
X166258000Y-118900000D01*
X135200000Y-105100000D02*
X135200000Y-104200000D01*
X158100000Y-87600000D02*
X156750000Y-87600000D01*
X135600000Y-96352850D02*
X135247150Y-96000000D01*
X128275000Y-125050000D02*
X128275000Y-124050000D01*
%TO.N,/7 Celula de carga/IEXC2*%
D57*
X162200000Y-79600000D02*
X157200000Y-79600000D01*
%TO.N,REFIN1+*%
D56*
X152700000Y-89150000D02*
X152000000Y-89850000D01*
X164400000Y-78300000D02*
X164400000Y-82300000D01*
X164400000Y-82300000D02*
X163900000Y-82800000D01*
X149858400Y-90041600D02*
X148229100Y-90041600D01*
X150050000Y-89850000D02*
X149858400Y-90041600D01*
X164850000Y-82850000D02*
X163950000Y-82850000D01*
X163950000Y-82850000D02*
X163900000Y-82800000D01*
X152000000Y-89850000D02*
X150050000Y-89850000D01*
X152700000Y-84900000D02*
X152700000Y-89150000D01*
%TO.N,Net-(U3-EN)*%
X131300000Y-116450000D02*
X134750000Y-116450000D01*
%TO.N,+5V_ADC*%
D58*
X133600000Y-114600000D02*
X133900000Y-114300000D01*
X139900000Y-103400000D02*
X139900000Y-101900000D01*
X139900000Y-101900000D02*
X141600000Y-100200000D01*
X129900000Y-116850000D02*
X129900000Y-117150000D01*
X134400000Y-117250000D02*
X134000000Y-117650000D01*
X134000000Y-117650000D02*
X130400000Y-117650000D01*
X152550000Y-97650000D02*
X152550000Y-93200000D01*
X129900000Y-117150000D02*
X130400000Y-117650000D01*
X141600000Y-100200000D02*
X151200000Y-100200000D01*
X129900000Y-118400000D02*
X129900000Y-118150000D01*
X151450000Y-80850000D02*
X151150000Y-80550000D01*
X151150000Y-80550000D02*
X151150000Y-79830000D01*
X153500000Y-81400000D02*
X152950000Y-80850000D01*
X151150000Y-79830000D02*
X151280000Y-79700000D01*
X129900000Y-118150000D02*
X130400000Y-117650000D01*
X153500000Y-88500000D02*
X153500000Y-81400000D01*
X133900000Y-114300000D02*
X133900000Y-112900000D01*
X152950000Y-80850000D02*
X151450000Y-80850000D01*
X134750000Y-114550000D02*
X133650000Y-114550000D01*
X133900000Y-112900000D02*
X133800000Y-112800000D01*
X133650000Y-114550000D02*
X133600000Y-114600000D01*
%TO.N,+12V_TPS*%
X148300000Y-101800000D02*
X150300000Y-101800000D01*
X152000000Y-101800000D02*
X150300000Y-101800000D01*
X160150000Y-92200000D02*
X162062500Y-92200000D01*
X160600000Y-121100000D02*
X159900000Y-121800000D01*
X160100000Y-119000000D02*
X160600000Y-119500000D01*
X159700000Y-92650000D02*
X160150000Y-92200000D01*
X160500000Y-105900000D02*
X160500000Y-101475000D01*
X159700000Y-98800000D02*
X159700000Y-98100000D01*
X152700000Y-119300000D02*
X152700000Y-102500000D01*
X161968750Y-109650000D02*
X161250000Y-109650000D01*
X161350000Y-100650000D02*
X162125000Y-100650000D01*
X160500000Y-93550000D02*
X159700000Y-92750000D01*
X160500000Y-101475000D02*
X160425000Y-101400000D01*
X160500000Y-97300000D02*
X160500000Y-93550000D01*
X160550000Y-110350000D02*
X159700000Y-110350000D01*
X160687500Y-118250000D02*
X162062500Y-118250000D01*
X160525000Y-101475000D02*
X161350000Y-100650000D01*
X160425000Y-101400000D02*
X159700000Y-101400000D01*
X160500000Y-114700000D02*
X160500000Y-110800000D01*
X159700000Y-98100000D02*
X160500000Y-97300000D01*
X159200000Y-107200000D02*
X160500000Y-105900000D01*
X160500000Y-110800000D02*
X160050000Y-110350000D01*
X146275000Y-103650000D02*
X146275000Y-101825000D01*
X159700000Y-119000000D02*
X160100000Y-119000000D01*
X148300000Y-101800000D02*
X146300000Y-101800000D01*
X152700000Y-102500000D02*
X152000000Y-101800000D01*
X160516893Y-118420607D02*
X160687500Y-118250000D01*
X161250000Y-109650000D02*
X160550000Y-110350000D01*
X160500000Y-101475000D02*
X160525000Y-101475000D01*
X160600000Y-119500000D02*
X160600000Y-121100000D01*
X159700000Y-92775000D02*
X159700000Y-92650000D01*
X160516893Y-118420607D02*
X159937500Y-119000000D01*
X159500000Y-115700000D02*
X160500000Y-114700000D01*
X146275000Y-101825000D02*
X146300000Y-101800000D01*
X159200000Y-107500000D02*
X159200000Y-107200000D01*
X160516893Y-118420607D02*
X160551239Y-118420607D01*
X155200000Y-121800000D02*
X152700000Y-119300000D01*
X159900000Y-121800000D02*
X155200000Y-121800000D01*
%TO.N,Net-(U12-FB)*%
D56*
X144900000Y-101800000D02*
X143700000Y-101800000D01*
X145625000Y-102825000D02*
X144900000Y-102100000D01*
X144900000Y-102100000D02*
X144900000Y-101800000D01*
X145625000Y-103650000D02*
X145625000Y-102825000D01*
%TO.N,+24V_ADC*%
D59*
X144725000Y-128612800D02*
X145060000Y-128277800D01*
X173325000Y-128050000D02*
X173600000Y-127775000D01*
X144725000Y-131200000D02*
X144725000Y-128612800D01*
X170650000Y-128050000D02*
X173325000Y-128050000D01*
X173600000Y-108350000D02*
X173600000Y-109500000D01*
X142050000Y-128300000D02*
X142072200Y-128277800D01*
D60*
X145950000Y-109150000D02*
X144600000Y-109150000D01*
D59*
X141200000Y-127450000D02*
X141200000Y-112850000D01*
X142050000Y-128300000D02*
X141200000Y-127450000D01*
X142072200Y-128277800D02*
X145060000Y-128277800D01*
X173600000Y-127775000D02*
X173600000Y-120800000D01*
X141200000Y-108525000D02*
X141200000Y-109600000D01*
D60*
X144325000Y-108875000D02*
X144325000Y-107950000D01*
D59*
X173600000Y-129200000D02*
X173600000Y-128325000D01*
D60*
X146275000Y-107950000D02*
X146275000Y-108825000D01*
X144600000Y-109150000D02*
X144325000Y-108875000D01*
D59*
X173600000Y-101150000D02*
X173600000Y-102300000D01*
X173600000Y-128325000D02*
X173600000Y-127775000D01*
X142150000Y-107950000D02*
X144225000Y-107950000D01*
X173325000Y-128050000D02*
X173600000Y-128325000D01*
X160575000Y-131975000D02*
X170825000Y-131975000D01*
X140850000Y-129850000D02*
X142200000Y-131200000D01*
X170825000Y-131975000D02*
X173600000Y-129200000D01*
X173600000Y-118000000D02*
X173600000Y-116750000D01*
X158550000Y-131975000D02*
X160350000Y-131975000D01*
X138800000Y-129850000D02*
X131200000Y-129850000D01*
X150800000Y-133400000D02*
X152225000Y-131975000D01*
D60*
X146275000Y-108825000D02*
X145950000Y-109150000D01*
D59*
X173600000Y-93350000D02*
X173600000Y-94450000D01*
X152225000Y-131975000D02*
X155600000Y-131975000D01*
X155600000Y-131975000D02*
X158550000Y-131975000D01*
X142200000Y-131200000D02*
X144725000Y-131200000D01*
X141900000Y-107825000D02*
X141200000Y-108525000D01*
%TO.N,+3.3V*%
D58*
X125000000Y-96800000D02*
X125525000Y-97325000D01*
X124900000Y-101987500D02*
X125100000Y-101787500D01*
X124712500Y-101787500D02*
X122825000Y-99900000D01*
X124900000Y-101975000D02*
X124712500Y-101787500D01*
X126175000Y-97325000D02*
X127341800Y-97325000D01*
X124900000Y-101987500D02*
X124900000Y-101975000D01*
X125000000Y-94350000D02*
X125000000Y-96800000D01*
X125100000Y-101787500D02*
X124712500Y-101787500D01*
X124925000Y-105100000D02*
X124925000Y-103675000D01*
X124900000Y-103650000D02*
X124900000Y-101987500D01*
X127994300Y-101787500D02*
X125100000Y-101787500D01*
X126600000Y-105100000D02*
X124925000Y-105100000D01*
X124925000Y-103675000D02*
X124900000Y-103650000D01*
X125525000Y-97325000D02*
X126175000Y-97325000D01*
X127341800Y-97325000D02*
X127994300Y-97977500D01*
%TO.N,DGND*%
D56*
X126200000Y-95900000D02*
X126175000Y-95925000D01*
X123525000Y-105975000D02*
X123500000Y-106000000D01*
X127200000Y-95900000D02*
X126200000Y-95900000D01*
X126644087Y-98612500D02*
X127994300Y-98612500D01*
X123525000Y-105100000D02*
X123525000Y-105975000D01*
X123500000Y-103650000D02*
X123500000Y-102750000D01*
X123500000Y-102750000D02*
X123450000Y-102700000D01*
X127585000Y-107735000D02*
X127550000Y-107700000D01*
X127585000Y-108725000D02*
X127585000Y-107735000D01*
X127994300Y-103400000D02*
X127994300Y-102421500D01*
X128950000Y-111575000D02*
X128950000Y-110575000D01*
%TO.N,/5 ADC/AIN1_ADC*%
X154950000Y-89950000D02*
X155600000Y-89950000D01*
X155800000Y-92550000D02*
X155100000Y-91850000D01*
X147429100Y-92341600D02*
X147837500Y-92750000D01*
X155100000Y-90700000D02*
X155800000Y-90000000D01*
X152150000Y-92750000D02*
X154950000Y-89950000D01*
X155600000Y-89950000D02*
X155750000Y-89800000D01*
X155800000Y-92750000D02*
X155800000Y-92550000D01*
X155800000Y-94175000D02*
X155800000Y-92750000D01*
X147837500Y-92750000D02*
X152150000Y-92750000D01*
X155100000Y-91850000D02*
X155100000Y-90700000D01*
%TO.N,Net-(FB4-Pad2)*%
X158400000Y-94175000D02*
X157400000Y-94175000D01*
%TO.N,+3.3V_ANA*%
D58*
X128950000Y-81680000D02*
X128950000Y-76800000D01*
X139200000Y-112950000D02*
X138025000Y-112950000D01*
X143350000Y-79350000D02*
X142650000Y-79350000D01*
X153600000Y-79700000D02*
X154500000Y-79700000D01*
X145250000Y-76925000D02*
X145250000Y-79350000D01*
X142650000Y-79350000D02*
X142300000Y-79000000D01*
X139300000Y-112950000D02*
X142450000Y-109800000D01*
X128950000Y-76800000D02*
X141250000Y-76800000D01*
X133550000Y-108000000D02*
X134250000Y-107300000D01*
X136850000Y-112600000D02*
X136700000Y-112750000D01*
X141250000Y-76800000D02*
X142300000Y-77850000D01*
X154850000Y-84700000D02*
X154850000Y-84000000D01*
X154850000Y-80950000D02*
X153600000Y-79700000D01*
X143350000Y-77900000D02*
X144500000Y-76750000D01*
X138025000Y-112950000D02*
X138000000Y-112925000D01*
X133550000Y-109600000D02*
X133550000Y-108700000D01*
X156400000Y-84300000D02*
X155250000Y-84300000D01*
X161700000Y-83750000D02*
X161000000Y-83750000D01*
X142300000Y-77850000D02*
X142300000Y-79000000D01*
X143350000Y-79350000D02*
X142825000Y-79350000D01*
X136200000Y-109800000D02*
X133750000Y-109800000D01*
X155250000Y-84300000D02*
X154850000Y-84700000D01*
X141099900Y-85250100D02*
X141099900Y-85400000D01*
X132350000Y-81680000D02*
X128950000Y-81680000D01*
X142250000Y-84100000D02*
X141099900Y-85250100D01*
X133550000Y-108700000D02*
X133550000Y-108000000D01*
X156400000Y-84300000D02*
X155150000Y-84300000D01*
X141099900Y-86799920D02*
X141099900Y-85400000D01*
X136700000Y-110300000D02*
X136200000Y-109800000D01*
X152550000Y-79700000D02*
X153600000Y-79700000D01*
X155000000Y-80800000D02*
X154850000Y-80950000D01*
X139200000Y-112950000D02*
X139300000Y-112950000D01*
X145425000Y-76750000D02*
X145250000Y-76925000D01*
X136700000Y-113900000D02*
X136700000Y-110300000D01*
X154850000Y-84000000D02*
X154850000Y-80950000D01*
X154350000Y-76700000D02*
X147450000Y-76700000D01*
X142450000Y-109800000D02*
X151500000Y-109800000D01*
X154500000Y-79700000D02*
X154750000Y-79450000D01*
X154500000Y-76850000D02*
X154350000Y-76700000D01*
X154850000Y-113800000D02*
X154850000Y-112800000D01*
X161000000Y-83750000D02*
X160450000Y-83200000D01*
X144500000Y-76750000D02*
X145425000Y-76750000D01*
X134250000Y-107378249D02*
X134250000Y-107300000D01*
X136825000Y-112925000D02*
X136700000Y-112800000D01*
X160450000Y-83200000D02*
X160450000Y-80800000D01*
X133750000Y-109800000D02*
X133550000Y-109600000D01*
X147400000Y-76750000D02*
X145425000Y-76750000D01*
X138000000Y-112925000D02*
X136825000Y-112925000D01*
X137350000Y-114550000D02*
X136700000Y-113900000D01*
X154850000Y-86950000D02*
X154850000Y-84700000D01*
X154850000Y-104500000D02*
X154850000Y-105400000D01*
X142300000Y-79000000D02*
X142300000Y-79875000D01*
X143350000Y-79350000D02*
X143350000Y-77900000D01*
X142825000Y-79350000D02*
X142300000Y-79875000D01*
X156400000Y-80800000D02*
X155000000Y-80800000D01*
X155150000Y-84300000D02*
X154850000Y-84000000D01*
X154850000Y-87750000D02*
X154850000Y-86950000D01*
X142300000Y-79875000D02*
X142300000Y-82000000D01*
X142300000Y-84100000D02*
X142250000Y-84100000D01*
X154850000Y-95550000D02*
X154850000Y-96550000D01*
%TO.N,+2.5_VREF*%
D56*
X141200000Y-83035000D02*
X141165000Y-83070000D01*
X148000000Y-82950000D02*
X137550000Y-82950000D01*
X148000000Y-83800000D02*
X148000000Y-82950000D01*
X145950000Y-86250000D02*
X145929000Y-87242000D01*
X148000000Y-82950000D02*
X147880000Y-83070000D01*
X141200000Y-83035000D02*
X141235000Y-83070000D01*
%TO.N,IEXC_OUT*%
D57*
X170842000Y-77800000D02*
X170642000Y-77600000D01*
X165300000Y-76000000D02*
X164400000Y-76900000D01*
X170693300Y-77600000D02*
X170642000Y-77600000D01*
X170642000Y-76442000D02*
X170200000Y-76000000D01*
X164400000Y-76900000D02*
X164050000Y-76550000D01*
X170200000Y-76000000D02*
X165300000Y-76000000D01*
X164050000Y-76550000D02*
X162200000Y-76550000D01*
X176512100Y-83418800D02*
X170693300Y-77600000D01*
X170642000Y-77600000D02*
X170642000Y-76442000D01*
X174700000Y-77800000D02*
X170842000Y-77800000D01*
%TO.N,Net-(U6-REGCAPA)*%
D56*
X143929100Y-87241600D02*
X143929100Y-85629100D01*
X143929100Y-85629100D02*
X143700000Y-85400000D01*
%TO.N,/5 ADC/AIN2_ADC*%
X155800000Y-102800000D02*
X155800000Y-101400000D01*
X146929100Y-92929100D02*
X146929100Y-92341600D01*
X155200000Y-100800000D02*
X155200000Y-99200000D01*
X155800000Y-98600000D02*
X152600000Y-98600000D01*
X155800000Y-101400000D02*
X155200000Y-100800000D01*
X152600000Y-98600000D02*
X146929100Y-92929100D01*
X155200000Y-99200000D02*
X155800000Y-98600000D01*
%TO.N,Net-(FB5-Pad2)*%
X158400000Y-102800000D02*
X157200000Y-102800000D01*
%TO.N,/1 Conectores/+24V_AIN3*%
D57*
X173475000Y-105650000D02*
X172325000Y-106800000D01*
X173600000Y-105650000D02*
X173475000Y-105650000D01*
X174600900Y-105650000D02*
X173600000Y-105650000D01*
X176512100Y-103738800D02*
X174600900Y-105650000D01*
X172325000Y-106800000D02*
X170880000Y-106800000D01*
%TO.N,+5V_REG*%
D58*
X130500000Y-121350000D02*
X128275000Y-121350000D01*
X139475000Y-125150000D02*
X139800000Y-125475000D01*
X150100000Y-132340000D02*
X149240000Y-133200000D01*
X132625000Y-121350000D02*
X130500000Y-121350000D01*
X134300000Y-121350000D02*
X132625000Y-121350000D01*
X139475000Y-125075000D02*
X139800000Y-124750000D01*
X138000000Y-121350000D02*
X136200000Y-121350000D01*
X150140000Y-128277800D02*
X150140000Y-130810000D01*
X129900000Y-120750000D02*
X130500000Y-121350000D01*
X139800000Y-124750000D02*
X139800000Y-123150000D01*
X150140000Y-130810000D02*
X150100000Y-130850000D01*
X139800000Y-131675000D02*
X139800000Y-127975000D01*
X150140000Y-128280000D02*
X150700000Y-128840000D01*
X141325000Y-133200000D02*
X139800000Y-131675000D01*
X129900000Y-119750000D02*
X129900000Y-120750000D01*
X139800000Y-125475000D02*
X139800000Y-124750000D01*
X139800000Y-123150000D02*
X138000000Y-121350000D01*
X149240000Y-133200000D02*
X141325000Y-133200000D01*
X139475000Y-125150000D02*
X139475000Y-125075000D01*
X136200000Y-121350000D02*
X134300000Y-121350000D01*
X139800000Y-127975000D02*
X139800000Y-125475000D01*
X150100000Y-130850000D02*
X150100000Y-132340000D01*
X137550000Y-125150000D02*
X139475000Y-125150000D01*
%TO.N,VREFADC*%
D56*
X151700000Y-86400000D02*
X151250000Y-85950000D01*
X145129100Y-85200000D02*
X150500000Y-85200000D01*
X150500000Y-85200000D02*
X151250000Y-85950000D01*
X151700000Y-87200000D02*
X151700000Y-86400000D01*
X144929100Y-87241600D02*
X144929100Y-85400000D01*
X144929100Y-85400000D02*
X145129100Y-85200000D01*
%TO.N,Net-(R36-Pad2)*%
X151250000Y-84550000D02*
X151250000Y-83350000D01*
X151250000Y-83350000D02*
X149550000Y-83350000D01*
%TO.N,/MOSI*%
X128044300Y-99246500D02*
X126446500Y-99246500D01*
X123400000Y-96200000D02*
X123400000Y-89400000D01*
X126446500Y-99246500D02*
X123400000Y-96200000D01*
X122498800Y-88498800D02*
X120505100Y-88498800D01*
X123400000Y-89400000D02*
X122498800Y-88498800D01*
%TO.N,/CLK*%
X123000000Y-96600000D02*
X123000000Y-92200000D01*
X128044300Y-99882000D02*
X126282000Y-99882000D01*
X121838800Y-91038800D02*
X120505100Y-91038800D01*
X126282000Y-99882000D02*
X123000000Y-96600000D01*
X123000000Y-92200000D02*
X121838800Y-91038800D01*
%TO.N,/CS_ADC*%
X128044300Y-100517500D02*
X125800000Y-100517500D01*
%TO.N,/MISO*%
X121978800Y-93578800D02*
X120505100Y-93578800D01*
X125602500Y-101152500D02*
X122600000Y-98150000D01*
X127994300Y-101152500D02*
X125602500Y-101152500D01*
X122600000Y-98150000D02*
X122600000Y-94200000D01*
X122600000Y-94200000D02*
X121978800Y-93578800D01*
%TO.N,+3.3V_ISO*%
D58*
X133494300Y-97977500D02*
X133494300Y-96000000D01*
X139200000Y-111225000D02*
X140050000Y-110375000D01*
X140050000Y-107037500D02*
X134800000Y-101787500D01*
X134800000Y-97977500D02*
X133494300Y-97977500D01*
X133506800Y-101800000D02*
X133494300Y-101787500D01*
X133456800Y-101800000D02*
X133444300Y-101787500D01*
X140050000Y-110375000D02*
X140050000Y-107037500D01*
X133494300Y-101787500D02*
X134800000Y-101787500D01*
%TO.N,/4 Barreira digital/MISO_ADC_ISO*%
D56*
X136000000Y-98600000D02*
X136400000Y-98600000D01*
X142258400Y-89541600D02*
X143129100Y-89541600D01*
X137000000Y-98000000D02*
X137000000Y-94800000D01*
X137000000Y-94800000D02*
X142258400Y-89541600D01*
X136400000Y-98600000D02*
X137000000Y-98000000D01*
X136000000Y-101152500D02*
X133494300Y-101152500D01*
%TO.N,/4 Barreira digital/CS_ADC_ISO*%
X138350000Y-98850000D02*
X138350000Y-95250000D01*
X133444300Y-100517500D02*
X136682500Y-100517500D01*
X136682500Y-100517500D02*
X138350000Y-98850000D01*
X142058400Y-91541600D02*
X143129100Y-91541600D01*
X138350000Y-95250000D02*
X142058400Y-91541600D01*
%TO.N,/4 Barreira digital/CLK_ADC_ISO*%
X137900000Y-98500000D02*
X137900000Y-95120700D01*
X136518000Y-99882000D02*
X137900000Y-98500000D01*
X137900000Y-95120700D02*
X142479100Y-90541600D01*
X142479100Y-90541600D02*
X143129100Y-90541600D01*
X133444300Y-99882000D02*
X136518000Y-99882000D01*
%TO.N,/4 Barreira digital/MOSI_ADC_ISO*%
X137450000Y-98350000D02*
X137450000Y-94950000D01*
X133444300Y-99246500D02*
X136553500Y-99246500D01*
X137450000Y-94950000D02*
X142358400Y-90041600D01*
X142358400Y-90041600D02*
X143129100Y-90041600D01*
X136553500Y-99246500D02*
X137450000Y-98350000D01*
%TO.N,Net-(FB5-Pad1)*%
X157725000Y-100225000D02*
X157600000Y-100100000D01*
X158400000Y-101450000D02*
X158400000Y-100543750D01*
X158400000Y-100543750D02*
X158943750Y-100000000D01*
X158943750Y-100000000D02*
X157600000Y-100000000D01*
%TO.N,Net-(U9-OUT)*%
D57*
X162125000Y-100000000D02*
X160343750Y-100000000D01*
%TO.N,/5 ADC/Temp2_AIN9_ADC*%
D56*
X148229100Y-88541600D02*
X148733400Y-88541600D01*
X148733400Y-88541600D02*
X150050000Y-87225000D01*
X150050000Y-87225000D02*
X150050000Y-87200000D01*
X152300000Y-81950000D02*
X151250000Y-81950000D01*
X150050000Y-87200000D02*
X150050000Y-86200000D01*
%TO.N,/1 Conectores/AIN1*%
D57*
X170712000Y-94312000D02*
X170712000Y-92112000D01*
X164337500Y-91550000D02*
X170000000Y-91550000D01*
X170000000Y-91550000D02*
X170150000Y-91550000D01*
X170150000Y-91550000D02*
X170712000Y-92112000D01*
X170712000Y-92112000D02*
X170712000Y-92800000D01*
X176512100Y-96118800D02*
X172518800Y-96118800D01*
X172518800Y-96118800D02*
X170712000Y-94312000D01*
%TO.N,Net-(U3-BP)*%
D56*
X137350000Y-116450000D02*
X138950000Y-116450000D01*
%TO.N,/7 Celula de carga/+2V5_EXC*%
D57*
X149200000Y-79700000D02*
X148800000Y-80100000D01*
X148300000Y-81750000D02*
X145450000Y-81750000D01*
X148800000Y-81250000D02*
X148300000Y-81750000D01*
X150010000Y-79700000D02*
X149200000Y-79700000D01*
X145450000Y-81750000D02*
X145250000Y-81950000D01*
X148800000Y-80100000D02*
X148800000Y-81250000D01*
%TO.N,/1 Conectores/Load_Cell+*%
D56*
X165000000Y-83850000D02*
X169750000Y-83850000D01*
X176512100Y-85958800D02*
X176158800Y-85958800D01*
X164450000Y-85750000D02*
X164450000Y-84400000D01*
X172803300Y-82250000D02*
X170642000Y-82250000D01*
X169750000Y-83850000D02*
X170642000Y-82958000D01*
X170642000Y-82958000D02*
X170642000Y-82250000D01*
X164450000Y-84400000D02*
X165000000Y-83850000D01*
X176512100Y-85958800D02*
X172803300Y-82250000D01*
X176512100Y-85958800D02*
X175958800Y-85958800D01*
%TO.N,/5 ADC/AIN5_ADC_Load_Cell+*%
X154850000Y-89300000D02*
X151850000Y-92300000D01*
X162950000Y-87050000D02*
X161600000Y-85700000D01*
X158850000Y-89300000D02*
X154850000Y-89300000D01*
X148229100Y-91929100D02*
X148229100Y-91541600D01*
X161600000Y-85350000D02*
X159250000Y-83000000D01*
X161600000Y-85700000D02*
X161600000Y-85350000D01*
X151850000Y-92300000D02*
X148600000Y-92300000D01*
X160100000Y-88050000D02*
X158850000Y-89300000D01*
X162950000Y-87100000D02*
X162950000Y-87050000D01*
X148600000Y-92300000D02*
X148229100Y-91929100D01*
X160100000Y-83850000D02*
X160100000Y-88050000D01*
X162975000Y-87075000D02*
X162950000Y-87100000D01*
X159250000Y-83000000D02*
X157350000Y-83000000D01*
X164450000Y-87075000D02*
X162975000Y-87075000D01*
%TO.N,/1 Conectores/+24V_AIN1*%
D57*
X172875000Y-89400000D02*
X173800000Y-90325000D01*
X173800000Y-90866700D02*
X176512100Y-93578800D01*
X170880000Y-89400000D02*
X172875000Y-89400000D01*
X173800000Y-90650000D02*
X173800000Y-90866700D01*
X173800000Y-90325000D02*
X173800000Y-90650000D01*
%TO.N,/5 ADC/AIN3_ADC*%
D56*
X153600000Y-100165686D02*
X153600000Y-106800000D01*
X155700000Y-110400000D02*
X155300000Y-110000000D01*
X154400000Y-107600000D02*
X155500000Y-107600000D01*
X146429100Y-92341600D02*
X146429100Y-92994785D01*
X155300000Y-110000000D02*
X155300000Y-107800000D01*
X156000000Y-110600000D02*
X155800000Y-110400000D01*
X155800000Y-111800000D02*
X155800000Y-110400000D01*
X155800000Y-107600000D02*
X155500000Y-107600000D01*
X155800000Y-110400000D02*
X155700000Y-110400000D01*
X146429100Y-92994785D02*
X153600000Y-100165686D01*
X155300000Y-107800000D02*
X155500000Y-107600000D01*
X153600000Y-106800000D02*
X154400000Y-107600000D01*
%TO.N,/5 ADC/AIN6_ADC_Load_Cell-*%
X157340000Y-86500000D02*
X158250000Y-86500000D01*
X161600000Y-89900000D02*
X161600000Y-88000000D01*
X149150000Y-91300000D02*
X148891600Y-91041600D01*
X161600000Y-89850000D02*
X162950000Y-88500000D01*
X151550000Y-91900000D02*
X149250000Y-91900000D01*
X159050000Y-88450000D02*
X158700000Y-88800000D01*
X159050000Y-87300000D02*
X159050000Y-88450000D01*
X149250000Y-91900000D02*
X149150000Y-91800000D01*
X148891600Y-91041600D02*
X148229100Y-91041600D01*
X161600000Y-89900000D02*
X161600000Y-89850000D01*
X161600000Y-88000000D02*
X160900000Y-87300000D01*
X164450000Y-90100000D02*
X162950000Y-88600000D01*
X158700000Y-88800000D02*
X154650000Y-88800000D01*
X162950000Y-88600000D02*
X162950000Y-88500000D01*
X154650000Y-88800000D02*
X151550000Y-91900000D01*
X149150000Y-91800000D02*
X149150000Y-91300000D01*
X158250000Y-86500000D02*
X159050000Y-87300000D01*
%TO.N,/5 ADC/AIN4_ADC*%
X155700000Y-118900000D02*
X155600000Y-118900000D01*
X155800000Y-119000000D02*
X155700000Y-118900000D01*
X155200000Y-118500000D02*
X155200000Y-116100000D01*
X155900000Y-120300000D02*
X155837500Y-120237500D01*
X155800000Y-116000000D02*
X154600000Y-116000000D01*
X153200000Y-114600000D02*
X153200000Y-100331371D01*
X155800000Y-120300000D02*
X155800000Y-119000000D01*
X155200000Y-116100000D02*
X155300000Y-116000000D01*
X145929100Y-93060471D02*
X145929100Y-92341600D01*
X155300000Y-116000000D02*
X155800000Y-116000000D01*
X153200000Y-100331371D02*
X145929100Y-93060471D01*
X155600000Y-118900000D02*
X155200000Y-118500000D01*
X154600000Y-116000000D02*
X153200000Y-114600000D01*
%TO.N,Net-(U4-REF)*%
X136150000Y-108700000D02*
X136150000Y-107300000D01*
X134950000Y-108700000D02*
X136150000Y-108700000D01*
%TO.N,Net-(D5-A)*%
X134300000Y-124100000D02*
X134300000Y-122750000D01*
%TO.N,Net-(C15-IN)*%
X141241580Y-88541600D02*
X141099900Y-88399920D01*
X143129100Y-88541600D02*
X141241580Y-88541600D01*
%TO.N,Net-(FB6-Pad1)*%
X158943750Y-109000000D02*
X157643750Y-109000000D01*
X158800000Y-109800000D02*
X158800000Y-109000000D01*
X158400000Y-110450000D02*
X158400000Y-110200000D01*
X158400000Y-110200000D02*
X158800000Y-109800000D01*
%TO.N,Net-(FB6-Pad2)*%
X157525000Y-111675000D02*
X157400000Y-111800000D01*
X157400000Y-111800000D02*
X157200000Y-111800000D01*
X158400000Y-111675000D02*
X157525000Y-111675000D01*
%TO.N,/1 Conectores/Load_Cell-*%
X165750000Y-87150000D02*
X164450000Y-88450000D01*
X164450000Y-88450000D02*
X164450000Y-88600000D01*
X169750000Y-87150000D02*
X165750000Y-87150000D01*
X173563300Y-85550000D02*
X176670100Y-88656800D01*
X170642000Y-86258000D02*
X169750000Y-87150000D01*
X170642000Y-85550000D02*
X170642000Y-86258000D01*
X170642000Y-85550000D02*
X173563300Y-85550000D01*
%TO.N,Net-(FB4-Pad1)*%
X157600000Y-91350000D02*
X158800000Y-91350000D01*
X158400000Y-92825000D02*
X158400000Y-91750000D01*
X158400000Y-91750000D02*
X158800000Y-91350000D01*
%TO.N,Net-(U8-OUT)*%
X162062500Y-91550000D02*
X160400000Y-91550000D01*
X160400000Y-91550000D02*
X160200000Y-91350000D01*
%TO.N,+3.3V_IOVDD*%
D58*
X144429300Y-95200000D02*
X144429300Y-95820700D01*
X143950000Y-96250000D02*
X143975000Y-96275000D01*
X139125000Y-96275000D02*
X139100000Y-96250000D01*
X144429300Y-96729300D02*
X143975000Y-96275000D01*
X138000000Y-110100000D02*
X139100000Y-109000000D01*
X138000000Y-111250000D02*
X138000000Y-110100000D01*
X139100000Y-105000000D02*
X139100000Y-96250000D01*
X144429300Y-97729300D02*
X144429300Y-96729300D01*
X139100000Y-109000000D02*
X139100000Y-107400000D01*
X144429300Y-95820700D02*
X143975000Y-96275000D01*
X139100000Y-96250000D02*
X143950000Y-96250000D01*
X139100000Y-91400000D02*
X139100000Y-90441600D01*
%TO.N,+24V*%
D59*
X124800000Y-128738800D02*
X124400000Y-129138800D01*
X124800000Y-127400000D02*
X124800000Y-128738800D01*
X125300000Y-127075000D02*
X128733000Y-127075000D01*
X124400000Y-129138800D02*
X120505100Y-129138800D01*
X128733000Y-129475000D02*
X128733000Y-127075000D01*
%TO.N,Net-(U6-REGCAPD)*%
D56*
X142808400Y-92341600D02*
X142500000Y-92650000D01*
X143929100Y-92341600D02*
X142808400Y-92341600D01*
X142500000Y-92650000D02*
X142500000Y-93700000D01*
%TO.N,Net-(C16-IN)*%
X144429300Y-93600000D02*
X144429300Y-92341800D01*
X144429300Y-92341800D02*
X144429100Y-92341600D01*
%TO.N,/5 ADC/Temp1_AIN8_ADC*%
X151700000Y-88600000D02*
X150050000Y-88600000D01*
X150050000Y-88600000D02*
X149608400Y-89041600D01*
X149608400Y-89041600D02*
X148229100Y-89041600D01*
X150150000Y-88500000D02*
X150050000Y-88600000D01*
%TO.N,Net-(U6-~{SYNC})*%
X139200000Y-89041600D02*
X143129100Y-89041600D01*
%TO.N,/1 Conectores/+24V_AIN4*%
D57*
X170950000Y-115400000D02*
X172250000Y-115400000D01*
X176512100Y-108818800D02*
X173600000Y-111730900D01*
X173600000Y-111730900D02*
X173600000Y-114050000D01*
X172250000Y-115400000D02*
X173600000Y-114050000D01*
%TO.N,/1 Conectores/AIN2*%
X170842000Y-101242000D02*
X170842000Y-102000000D01*
X164400000Y-100000000D02*
X169600000Y-100000000D01*
X170800000Y-102800000D02*
X170800000Y-102042000D01*
X169600000Y-100000000D02*
X170842000Y-101242000D01*
X176512100Y-101687900D02*
X174600000Y-103600000D01*
X171600000Y-103600000D02*
X170800000Y-102800000D01*
X176512100Y-101198800D02*
X176512100Y-101687900D01*
X174600000Y-103600000D02*
X171600000Y-103600000D01*
%TO.N,Net-(D18-A)*%
D56*
X160350000Y-130575000D02*
X160350000Y-129100000D01*
%TO.N,Net-(D2-A)*%
D59*
X131200000Y-132750000D02*
X129308000Y-132750000D01*
X129308000Y-132750000D02*
X128733000Y-132175000D01*
%TO.N,/6 Lacos 4-20mA/VSNS*%
D56*
X147900000Y-106250000D02*
X151450000Y-106250000D01*
X161187500Y-121512500D02*
X161287500Y-121512500D01*
X161400000Y-118900000D02*
X162062500Y-118900000D01*
X152200000Y-119700000D02*
X155000000Y-122500000D01*
X161187500Y-93125001D02*
X161462501Y-92850000D01*
X161462501Y-92850000D02*
X162125000Y-92850000D01*
X161300000Y-98100000D02*
X161187500Y-97987500D01*
X161300000Y-106200000D02*
X161100000Y-106000000D01*
X150900000Y-105650000D02*
X150900000Y-106200000D01*
X161543350Y-101300000D02*
X162125000Y-101300000D01*
X155000000Y-122500000D02*
X160200000Y-122500000D01*
X152200000Y-107000000D02*
X152200000Y-119700000D01*
X161100000Y-106000000D02*
X161100000Y-101743350D01*
X161187500Y-121412500D02*
X161287500Y-121512500D01*
X161187500Y-113187500D02*
X161200000Y-113200000D01*
X161187500Y-119112500D02*
X161187500Y-121412500D01*
X150300000Y-103200000D02*
X150300000Y-105050000D01*
X161187500Y-98137500D02*
X161187500Y-93125001D01*
X160200000Y-122500000D02*
X161187500Y-121512500D01*
X151450000Y-106250000D02*
X152200000Y-107000000D01*
X161100000Y-101743350D02*
X161543350Y-101300000D01*
X161462501Y-110300000D02*
X161187500Y-110575001D01*
X161187500Y-119112500D02*
X161400000Y-118900000D01*
X162125000Y-110300000D02*
X161462501Y-110300000D01*
X161187500Y-110575001D02*
X161187500Y-113187500D01*
X150300000Y-105050000D02*
X150900000Y-105650000D01*
%TO.N,Net-(FB7-Pad1)*%
X157400000Y-117500000D02*
X158537500Y-117500000D01*
X158400000Y-118925000D02*
X158400000Y-118500000D01*
X158800000Y-118100000D02*
X158800000Y-117400000D01*
X158537500Y-117500000D02*
X158637500Y-117600000D01*
X158400000Y-118500000D02*
X158800000Y-118100000D01*
%TO.N,Net-(U11-OUT)*%
D57*
X162062500Y-117600000D02*
X160437500Y-117600000D01*
%TO.N,Net-(FB7-Pad2)*%
D56*
X158637500Y-120275000D02*
X157237500Y-120275000D01*
%TO.N,/7 Celula de carga/EXC_SEL*%
X156250000Y-76800000D02*
X154620000Y-78430000D01*
X157100000Y-76800000D02*
X156250000Y-76800000D01*
X154620000Y-78430000D02*
X150010000Y-78430000D01*
%TO.N,/1 Conectores/AIN3*%
D57*
X173700000Y-110600000D02*
X175000000Y-109300000D01*
X164243750Y-109000000D02*
X170000000Y-109000000D01*
X175000000Y-107790900D02*
X176512100Y-106278800D01*
X170712000Y-109712000D02*
X170712000Y-110600000D01*
X170642000Y-110600000D02*
X173700000Y-110600000D01*
X170000000Y-109000000D02*
X170712000Y-109712000D01*
X175000000Y-109300000D02*
X175000000Y-107790900D01*
%TO.N,Net-(U10-OUT)*%
X161968750Y-109000000D02*
X160343750Y-109000000D01*
%TO.N,/1 Conectores/+24V_AIN2*%
X170950000Y-98200000D02*
X173000000Y-98200000D01*
X173800000Y-98450000D02*
X173450000Y-98450000D01*
X176512100Y-98658800D02*
X174008800Y-98658800D01*
X174008800Y-98658800D02*
X173800000Y-98450000D01*
%TO.N,+5V*%
D58*
X127550000Y-110175000D02*
X126600000Y-109225000D01*
X121981200Y-121518800D02*
X127550000Y-115950000D01*
X127550000Y-110575000D02*
X127550000Y-110175000D01*
X127550000Y-115950000D02*
X127550000Y-110575000D01*
X120505100Y-121518800D02*
X121981200Y-121518800D01*
X128500000Y-109225000D02*
X128500000Y-107700000D01*
X126600000Y-109225000D02*
X126600000Y-107700000D01*
X127550000Y-110175000D02*
X128500000Y-109225000D01*
%TO.N,/1 Conectores/AIN4*%
D57*
X170642000Y-119200000D02*
X169042000Y-117600000D01*
X176512100Y-111358800D02*
X175000000Y-112870900D01*
X169042000Y-117600000D02*
X164887500Y-117600000D01*
X175000000Y-117800000D02*
X173600000Y-119200000D01*
X175000000Y-112870900D02*
X175000000Y-117800000D01*
X173600000Y-119200000D02*
X170642000Y-119200000D01*
%TD*%
M02*
