%TF.GenerationSoftware,KiCad,Pcbnew,10.0.5*%
%TF.CreationDate,2026-09-28T18:23:03-03:00*%
%TF.ProjectId,IC2S-EBM7-2608-V2.3-Fixo420,49433253-2d45-4424-9d37-2d323630382d,rev?*%
%TF.SameCoordinates,Original*%
%TF.FileFunction,Legend,Bot*%
%TF.FilePolarity,Positive*%
%FSLAX46Y46*%
G04 Gerber Fmt 4.6, Leading zero omitted, Abs format (unit mm)*
G04 Created by KiCad (PCBNEW 10.0.5) date 2026-09-28 18:23:03*
%MOMM*%
%LPD*%
G01*
G04 APERTURE LIST*
%ADD10C,0.100000*%
%ADD11C,0.200000*%
%ADD12C,2.500000*%
%ADD13C,1.100000*%
%ADD14R,2.200000X1.600000*%
%ADD15O,2.200000X1.600000*%
%ADD16R,1.000000X1.000000*%
%ADD17C,1.000000*%
%ADD18R,1.500000X1.500000*%
%ADD19C,1.500000*%
G04 APERTURE END LIST*
D10*
X177042856Y-79172371D02*
X177042856Y-78572371D01*
X177042856Y-78572371D02*
X176814285Y-78572371D01*
X176814285Y-78572371D02*
X176757142Y-78600942D01*
X176757142Y-78600942D02*
X176728571Y-78629514D01*
X176728571Y-78629514D02*
X176699999Y-78686657D01*
X176699999Y-78686657D02*
X176699999Y-78772371D01*
X176699999Y-78772371D02*
X176728571Y-78829514D01*
X176728571Y-78829514D02*
X176757142Y-78858085D01*
X176757142Y-78858085D02*
X176814285Y-78886657D01*
X176814285Y-78886657D02*
X177042856Y-78886657D01*
X176471428Y-78629514D02*
X176442856Y-78600942D01*
X176442856Y-78600942D02*
X176385714Y-78572371D01*
X176385714Y-78572371D02*
X176242856Y-78572371D01*
X176242856Y-78572371D02*
X176185714Y-78600942D01*
X176185714Y-78600942D02*
X176157142Y-78629514D01*
X176157142Y-78629514D02*
X176128571Y-78686657D01*
X176128571Y-78686657D02*
X176128571Y-78743800D01*
X176128571Y-78743800D02*
X176157142Y-78829514D01*
X176157142Y-78829514D02*
X176499999Y-79172371D01*
X176499999Y-79172371D02*
X176128571Y-79172371D01*
X123539041Y-77874756D02*
X123539041Y-77274756D01*
X123539041Y-77274756D02*
X123310470Y-77274756D01*
X123310470Y-77274756D02*
X123253327Y-77303327D01*
X123253327Y-77303327D02*
X123224756Y-77331899D01*
X123224756Y-77331899D02*
X123196184Y-77389042D01*
X123196184Y-77389042D02*
X123196184Y-77474756D01*
X123196184Y-77474756D02*
X123224756Y-77531899D01*
X123224756Y-77531899D02*
X123253327Y-77560470D01*
X123253327Y-77560470D02*
X123310470Y-77589042D01*
X123310470Y-77589042D02*
X123539041Y-77589042D01*
X122624756Y-77874756D02*
X122967613Y-77874756D01*
X122796184Y-77874756D02*
X122796184Y-77274756D01*
X122796184Y-77274756D02*
X122853327Y-77360470D01*
X122853327Y-77360470D02*
X122910470Y-77417613D01*
X122910470Y-77417613D02*
X122967613Y-77446185D01*
X125257143Y-125052371D02*
X124914286Y-125052371D01*
X125085714Y-125652371D02*
X125085714Y-125052371D01*
X124400000Y-125652371D02*
X124742857Y-125652371D01*
X124571428Y-125652371D02*
X124571428Y-125052371D01*
X124571428Y-125052371D02*
X124628571Y-125138085D01*
X124628571Y-125138085D02*
X124685714Y-125195228D01*
X124685714Y-125195228D02*
X124742857Y-125223800D01*
%TO.C,P2*%
D11*
X175242100Y-79608800D02*
X177782100Y-79608800D01*
X175242100Y-81513800D02*
X175242100Y-79608800D01*
X175242100Y-115168800D02*
X175242100Y-81513800D01*
X175242100Y-115168800D02*
X177782100Y-115168800D01*
X177782100Y-115168800D02*
X177782100Y-79608800D01*
%TO.C,P1*%
X119235100Y-79608800D02*
X121775100Y-79608800D01*
X119235100Y-81513800D02*
X119235100Y-79608800D01*
X119235100Y-130408800D02*
X119235100Y-81513800D01*
X119235100Y-130408800D02*
X121775100Y-130408800D01*
X121775100Y-130408800D02*
X121775100Y-79608800D01*
%TD*%
%LPC*%
D12*
%TO.C,Fid1*%
X121422100Y-133098600D03*
%TD*%
%TO.C,Fid3*%
X176100000Y-132700000D03*
%TD*%
D13*
%TO.C,T8*%
X170650000Y-128050000D03*
%TD*%
%TO.C,T4*%
X137550000Y-125150000D03*
%TD*%
D14*
%TO.C,U1*%
X145060000Y-128277800D03*
D15*
X147600000Y-128277800D03*
X150140000Y-128277800D03*
%TD*%
D13*
%TO.C,T6*%
X128950000Y-76800000D03*
%TD*%
D16*
%TO.C,H1*%
X150010000Y-78430000D03*
D17*
X150010000Y-79700000D03*
X151280000Y-78430000D03*
X151280000Y-79700000D03*
X152550000Y-78430000D03*
X152550000Y-79700000D03*
%TD*%
D13*
%TO.C,T5*%
X125000000Y-94350000D03*
%TD*%
D12*
%TO.C,Fid2*%
X121400000Y-77100000D03*
%TD*%
D13*
%TO.C,T3*%
X125000000Y-89850000D03*
%TD*%
%TO.C,T2*%
X125800000Y-131600000D03*
%TD*%
D18*
%TO.C,P2*%
X176512100Y-80878800D03*
D19*
X176512100Y-83418800D03*
X176512100Y-85958800D03*
X176512100Y-88498800D03*
X176512100Y-91038800D03*
X176512100Y-93578800D03*
X176512100Y-96118800D03*
X176512100Y-98658800D03*
X176512100Y-101198800D03*
X176512100Y-103738800D03*
X176512100Y-106278800D03*
X176512100Y-108818800D03*
X176512100Y-111358800D03*
X176512100Y-113898800D03*
%TD*%
D13*
%TO.C,T7*%
X176200000Y-128200000D03*
%TD*%
D18*
%TO.C,P1*%
X120505100Y-80878800D03*
D19*
X120505100Y-83418800D03*
X120505100Y-85958800D03*
X120505100Y-88498800D03*
X120505100Y-91038800D03*
X120505100Y-93578800D03*
X120505100Y-96118800D03*
X120505100Y-98658800D03*
X120505100Y-101198800D03*
X120505100Y-103738800D03*
X120505100Y-106278800D03*
X120505100Y-108818800D03*
X120505100Y-111358800D03*
X120505100Y-113898800D03*
X120505100Y-116438800D03*
X120505100Y-118978800D03*
X120505100Y-121518800D03*
X120505100Y-124058800D03*
X120505100Y-126598800D03*
X120505100Y-129138800D03*
%TD*%
D13*
%TO.C,T1*%
X124800000Y-127050000D03*
%TD*%
%LPD*%
M02*
